<svg width="422" height="311" viewBox="0 0 422 311" fill="none" xmlns="http://www.w3.org/2000/svg">
<g clip-path="url(#clip0_154_89)">
<path d="M179.525 210.891C179.525 210.891 235.452 204.18 255.027 193.553C274.601 182.927 420.011 177.894 420.011 210.891C420.011 243.888 252.79 258.429 252.79 258.429L164.984 253.395L179.525 210.891Z" fill="#FBBEBE"/>
<path opacity="0.1" d="M179.525 210.891C179.525 210.891 235.452 204.18 255.027 193.553C274.601 182.927 420.011 177.894 420.011 210.891C420.011 243.888 252.79 258.429 252.79 258.429L164.984 253.395L179.525 210.891Z" fill="black"/>
<path d="M195.744 204.739L184 238.854L0 241.091V190.757C0 190.757 70.468 174.538 126.395 209.213C126.395 209.213 192.389 201.383 195.744 204.739Z" fill="#2CA2D8"/>
<path opacity="0.1" d="M195.744 204.684L184 238.799L0 241.036V190.702C0 190.702 70.468 174.483 126.395 209.158C126.395 209.158 192.389 201.328 195.744 204.684Z" fill="black"/>
<path d="M406.112 190.477C406.112 192.384 401.838 193.799 401.417 195.637C401 197.461 403.54 200.234 402.736 201.976C401.906 203.757 400.924 205.464 399.803 207.078C398.75 208.585 395.498 208.365 394.165 209.779C392.859 211.062 391.476 212.265 390.024 213.38C388.609 214.556 386.692 214.803 385.083 215.886C383.553 216.916 383.738 220.695 382.046 221.633C380.429 222.529 377.953 221.808 376.199 222.614C374.515 223.387 373.627 226.184 371.827 226.867C370.092 227.527 367.943 227.243 366.108 227.814C364.331 228.367 362.344 228.278 360.483 228.743C358.675 229.195 357.295 231.904 355.415 232.27C353.583 232.626 351.436 231.676 349.542 231.946C347.692 232.209 345.541 229.868 343.638 230.045C341.776 230.219 340.02 231.302 338.113 231.39C336.243 231.476 334.394 232.3 332.486 232.3C330.578 232.3 328.61 234.089 326.74 234.003C324.832 233.916 323.105 231.203 321.243 231.03C319.34 230.853 317.07 233.686 315.22 233.423C313.326 233.153 311.826 230.38 309.994 230.024C308.113 229.659 305.684 231.641 303.877 231.189C302.015 230.723 300.91 227.496 299.134 226.943C297.298 226.372 295.024 227.146 293.288 226.486C291.487 225.802 289.294 225.912 287.61 225.139C285.856 224.333 284.597 222.427 282.98 221.531C281.288 220.593 280.507 218.266 278.978 217.236C277.368 216.153 274.917 216.291 273.502 215.114C272.008 213.872 269.209 213.807 267.948 212.47C266.615 211.056 266.075 208.683 265.023 207.175C263.914 205.587 266.09 202.23 265.316 200.552C264.513 198.811 261.154 198.103 260.737 196.28C260.308 194.375 260.087 192.43 260.08 190.477C260.08 188.571 262.952 187.115 263.372 185.276C263.789 183.452 261.675 180.833 262.479 179.091C263.253 177.413 263.154 174.833 264.263 173.245C265.316 171.737 267.943 171.146 269.276 169.733C270.537 168.396 272.794 168.023 274.288 166.781C275.702 165.604 275.522 162.056 277.131 160.972C278.661 159.942 280.797 159.473 282.489 158.535C284.106 157.638 286.395 157.789 288.149 156.984C289.833 156.211 292.47 157.734 294.27 157.05C296.006 156.391 297.414 154.949 299.249 154.378C301.025 153.825 301.86 149.608 303.721 149.143C305.529 148.691 307.752 149.441 309.633 149.076C311.464 148.72 313.929 152.047 315.824 151.777C317.673 151.514 319.057 147.073 320.96 146.895C322.822 146.722 324.922 149.022 326.83 148.935C328.7 148.849 330.578 150.197 332.486 150.197C334.393 150.197 336.294 148.347 338.164 148.433C340.071 148.52 341.753 150.965 343.616 151.138C345.519 151.315 347.855 147.597 349.705 147.86C351.599 148.13 353.062 151.004 354.894 151.36C356.775 151.725 359.13 149.941 360.938 150.393C362.8 150.859 363.92 153.914 365.696 154.467C367.531 155.038 368.662 157.193 370.398 157.853C372.198 158.537 375.542 155.336 377.226 156.11C378.981 156.915 380.496 158.31 382.113 159.206C383.805 160.144 386.495 159.672 388.025 160.702C389.634 161.786 390.03 164.694 391.445 165.871C392.939 167.113 395.403 167.487 396.664 168.824C397.997 170.238 398.182 172.771 399.235 174.279C400.344 175.866 400.309 178.066 401.083 179.744C401.886 181.486 404.031 182.803 404.448 184.626C404.868 186.465 406.112 188.572 406.112 190.477Z" fill="#2DB12D"/>
<path d="M204.693 225.432C204.693 225.432 267.89 192.994 308.717 205.298C349.544 217.602 406.589 196.35 413.3 203.62C420.012 210.891 429.519 289.188 348.984 293.663C268.449 298.137 199.659 280.24 199.659 280.24L204.693 225.432Z" fill="#FBBEBE"/>
<path d="M189.81 221.977C189.81 221.977 214.76 220.398 213.641 229.347C212.523 238.295 211.404 307.644 204.693 309.322C197.982 311 144.851 311 123.039 311H0V203.781C0 203.781 87.2461 198.587 130.869 220.398C130.869 220.398 183.316 219.641 189.81 221.977Z" fill="#2CA2D8"/>
<path d="M306.692 54.2714C304.308 54.406 302.009 55.2021 300.052 56.5704C298.095 57.9386 296.558 59.8249 295.613 62.0178C292.843 68.7144 296.41 76.5805 301.765 81.4638C307.119 86.347 313.998 89.1382 320.248 92.8071C328.642 97.735 336.185 104.576 340.385 113.357C344.585 122.138 345.032 133.015 340.095 141.404C335.513 149.191 327.18 153.851 319.233 158.149" stroke="#2DB12D" stroke-width="0.475316" stroke-miterlimit="10"/>
<path d="M329.063 13.4445C326.679 13.5791 324.38 14.3752 322.423 15.7434C320.466 17.1117 318.929 18.998 317.984 21.1909C315.214 27.8875 318.781 35.7536 324.135 40.6369C329.49 45.5201 336.369 48.3113 342.618 51.9802C351.013 56.908 358.556 63.7488 362.756 72.5299C366.956 81.311 367.403 92.1883 362.466 100.577C357.883 108.364 349.551 113.024 341.604 117.322" stroke="#2DB12D" stroke-width="0.475316" stroke-miterlimit="10"/>
<path d="M402.617 22.8345C400.649 21.4815 398.344 20.7034 395.959 20.5873C393.574 20.4713 391.204 21.0219 389.114 22.1774C382.824 25.7766 380.829 34.1802 382.074 41.3195C383.319 48.4588 387.049 54.8767 389.745 61.6037C393.365 70.6391 395.142 80.6659 393.088 90.1805C391.033 99.6952 384.728 108.57 375.688 112.181C367.298 115.532 357.857 114.116 348.942 112.649" stroke="#2DB12D" stroke-width="0.475316" stroke-miterlimit="10"/>
<path d="M337.799 107.234C345.212 107.234 351.221 104.315 351.221 100.714C351.221 97.1138 345.212 94.1949 337.799 94.1949C330.386 94.1949 324.376 97.1138 324.376 100.714C324.376 104.315 330.386 107.234 337.799 107.234Z" fill="#64BFB5"/>
<path d="M336.121 106.115C343.534 106.115 349.543 103.197 349.543 99.5959C349.543 95.9953 343.534 93.0764 336.121 93.0764C328.708 93.0764 322.698 95.9953 322.698 99.5959C322.698 103.197 328.708 106.115 336.121 106.115Z" stroke="#2DB12D" stroke-width="0.475316" stroke-miterlimit="10"/>
<path d="M366.88 101.641C374.294 101.641 380.303 98.7225 380.303 95.1219C380.303 91.5213 374.294 88.6024 366.88 88.6024C359.467 88.6024 353.458 91.5213 353.458 95.1219C353.458 98.7225 359.467 101.641 366.88 101.641Z" fill="#64BFB5"/>
<path d="M365.203 100.523C372.616 100.523 378.626 97.604 378.626 94.0034C378.626 90.4028 372.616 87.4839 365.203 87.4839C357.79 87.4839 351.781 90.4028 351.781 94.0034C351.781 97.604 357.79 100.523 365.203 100.523Z" stroke="#2DB12D" stroke-width="0.475316" stroke-miterlimit="10"/>
<path d="M371.355 126.249C378.768 126.249 384.777 123.33 384.777 119.73C384.777 116.129 378.768 113.21 371.355 113.21C363.942 113.21 357.932 116.129 357.932 119.73C357.932 123.33 363.942 126.249 371.355 126.249Z" fill="#64BFB5"/>
<path d="M369.677 125.131C377.09 125.131 383.1 122.212 383.1 118.611C383.1 115.011 377.09 112.092 369.677 112.092C362.264 112.092 356.255 115.011 356.255 118.611C356.255 122.212 362.264 125.131 369.677 125.131Z" stroke="#2DB12D" stroke-width="0.475316" stroke-miterlimit="10"/>
<path d="M368.559 64.7294C375.972 64.7294 381.981 61.8105 381.981 58.2099C381.981 54.6093 375.972 51.6904 368.559 51.6904C361.146 51.6904 355.136 54.6093 355.136 58.2099C355.136 61.8105 361.146 64.7294 368.559 64.7294Z" fill="#64BFB5"/>
<path d="M366.88 63.6109C374.294 63.6109 380.303 60.692 380.303 57.0914C380.303 53.4908 374.294 50.5719 366.88 50.5719C359.467 50.5719 353.458 53.4908 353.458 57.0914C353.458 60.692 359.467 63.6109 366.88 63.6109Z" stroke="#2DB12D" stroke-width="0.475316" stroke-miterlimit="10"/>
<path d="M335.003 60.8146C342.416 60.8146 348.425 57.8957 348.425 54.2951C348.425 50.6945 342.416 47.7756 335.003 47.7756C327.59 47.7756 321.58 50.6945 321.58 54.2951C321.58 57.8957 327.59 60.8146 335.003 60.8146Z" fill="#64BFB5"/>
<path d="M333.325 59.6961C340.738 59.6961 346.747 56.7772 346.747 53.1766C346.747 49.576 340.738 46.6571 333.325 46.6571C325.912 46.6571 319.902 49.576 319.902 53.1766C319.902 56.7772 325.912 59.6961 333.325 59.6961Z" stroke="#2DB12D" stroke-width="0.475316" stroke-miterlimit="10"/>
<path d="M350.103 46.8328C357.516 46.8328 363.525 43.9139 363.525 40.3133C363.525 36.7127 357.516 33.7938 350.103 33.7938C342.69 33.7938 336.68 36.7127 336.68 40.3133C336.68 43.9139 342.69 46.8328 350.103 46.8328Z" fill="#64BFB5"/>
<path d="M348.425 45.7143C355.838 45.7143 361.847 42.7954 361.847 39.1948C361.847 35.5942 355.838 32.6753 348.425 32.6753C341.012 32.6753 335.002 35.5942 335.002 39.1948C335.002 42.7954 341.012 45.7143 348.425 45.7143Z" stroke="#2DB12D" stroke-width="0.475316" stroke-miterlimit="10"/>
<path d="M383.1 49.6292C390.513 49.6292 396.522 46.7103 396.522 43.1097C396.522 39.5091 390.513 36.5902 383.1 36.5902C375.687 36.5902 369.677 39.5091 369.677 43.1097C369.677 46.7103 375.687 49.6292 383.1 49.6292Z" fill="#64BFB5"/>
<path d="M381.422 48.5107C388.835 48.5107 394.844 45.5918 394.844 41.9912C394.844 38.3906 388.835 35.4717 381.422 35.4717C374.009 35.4717 368 38.3906 368 41.9912C368 45.5918 374.009 48.5107 381.422 48.5107Z" stroke="#2DB12D" stroke-width="0.475316" stroke-miterlimit="10"/>
<path d="M407.707 68.0851C415.12 68.0851 421.13 65.1663 421.13 61.5656C421.13 57.965 415.12 55.0461 407.707 55.0461C400.294 55.0461 394.285 57.965 394.285 61.5656C394.285 65.1663 400.294 68.0851 407.707 68.0851Z" fill="#64BFB5"/>
<path d="M406.03 66.9666C413.443 66.9666 419.452 64.0477 419.452 60.4471C419.452 56.8465 413.443 53.9276 406.03 53.9276C398.617 53.9276 392.607 56.8465 392.607 60.4471C392.607 64.0477 398.617 66.9666 406.03 66.9666Z" stroke="#2DB12D" stroke-width="0.475316" stroke-miterlimit="10"/>
<path d="M321.02 35.6474C328.433 35.6474 334.443 32.7285 334.443 29.1279C334.443 25.5273 328.433 22.6084 321.02 22.6084C313.607 22.6084 307.598 25.5273 307.598 29.1279C307.598 32.7285 313.607 35.6474 321.02 35.6474Z" fill="#64BFB5"/>
<path d="M319.343 34.5289C326.756 34.5289 332.766 31.61 332.766 28.0094C332.766 24.4087 326.756 21.4899 319.343 21.4899C311.93 21.4899 305.921 24.4087 305.921 28.0094C305.921 31.61 311.93 34.5289 319.343 34.5289Z" stroke="#2DB12D" stroke-width="0.475316" stroke-miterlimit="10"/>
<path d="M329.409 14.3952C336.822 14.3952 342.832 11.4763 342.832 7.87569C342.832 4.27508 336.822 1.3562 329.409 1.3562C321.996 1.3562 315.987 4.27508 315.987 7.87569C315.987 11.4763 321.996 14.3952 329.409 14.3952Z" fill="#64BFB5"/>
<path d="M327.732 13.2767C335.145 13.2767 341.155 10.3578 341.155 6.75716C341.155 3.15655 335.145 0.237671 327.732 0.237671C320.319 0.237671 314.31 3.15655 314.31 6.75716C314.31 10.3578 320.319 13.2767 327.732 13.2767Z" stroke="#2DB12D" stroke-width="0.475316" stroke-miterlimit="10"/>
<path d="M407.149 30.0549C414.562 30.0549 420.571 27.136 420.571 23.5354C420.571 19.9347 414.562 17.0159 407.149 17.0159C399.736 17.0159 393.726 19.9347 393.726 23.5354C393.726 27.136 399.736 30.0549 407.149 30.0549Z" fill="#64BFB5"/>
<path d="M405.47 28.9362C412.883 28.9362 418.893 26.0173 418.893 22.4167C418.893 18.8161 412.883 15.8972 405.47 15.8972C398.057 15.8972 392.048 18.8161 392.048 22.4167C392.048 26.0173 398.057 28.9362 405.47 28.9362Z" stroke="#2DB12D" stroke-width="0.475316" stroke-miterlimit="10"/>
<path d="M283.549 81.5075C290.962 81.5075 296.972 78.5886 296.972 74.988C296.972 71.3874 290.962 68.4685 283.549 68.4685C276.136 68.4685 270.127 71.3874 270.127 74.988C270.127 78.5886 276.136 81.5075 283.549 81.5075Z" fill="#64BFB5"/>
<path d="M281.871 80.3891C289.284 80.3891 295.294 77.4702 295.294 73.8696C295.294 70.269 289.284 67.3501 281.871 67.3501C274.458 67.3501 268.449 70.269 268.449 73.8696C268.449 77.4702 274.458 80.3891 281.871 80.3891Z" stroke="#2DB12D" stroke-width="0.475316" stroke-miterlimit="10"/>
<path d="M329.969 78.152C337.382 78.152 343.391 75.2331 343.391 71.6325C343.391 68.0319 337.382 65.113 329.969 65.113C322.556 65.113 316.546 68.0319 316.546 71.6325C316.546 75.2331 322.556 78.152 329.969 78.152Z" fill="#64BFB5"/>
<path d="M328.291 77.0335C335.704 77.0335 341.714 74.1146 341.714 70.514C341.714 66.9134 335.704 63.9945 328.291 63.9945C320.878 63.9945 314.869 66.9134 314.869 70.514C314.869 74.1146 320.878 77.0335 328.291 77.0335Z" stroke="#2DB12D" stroke-width="0.475316" stroke-miterlimit="10"/>
<path d="M390.929 83.1853C398.342 83.1853 404.352 80.2665 404.352 76.6659C404.352 73.0652 398.342 70.1464 390.929 70.1464C383.516 70.1464 377.507 73.0652 377.507 76.6659C377.507 80.2665 383.516 83.1853 390.929 83.1853Z" fill="#64BFB5"/>
<path d="M389.252 82.0667C396.665 82.0667 402.674 79.1478 402.674 75.5472C402.674 71.9466 396.665 69.0277 389.252 69.0277C381.839 69.0277 375.829 71.9466 375.829 75.5472C375.829 79.1478 381.839 82.0667 389.252 82.0667Z" stroke="#2DB12D" stroke-width="0.475316" stroke-miterlimit="10"/>
<path d="M358.492 85.4224C365.905 85.4224 371.914 82.5035 371.914 78.9029C371.914 75.3023 365.905 72.3834 358.492 72.3834C351.079 72.3834 345.069 75.3023 345.069 78.9029C345.069 82.5035 351.079 85.4224 358.492 85.4224Z" fill="#64BFB5"/>
<path d="M356.814 84.3039C364.227 84.3039 370.237 81.385 370.237 77.7844C370.237 74.1838 364.227 71.2649 356.814 71.2649C349.401 71.2649 343.392 74.1838 343.392 77.7844C343.392 81.385 349.401 84.3039 356.814 84.3039Z" stroke="#2DB12D" stroke-width="0.475316" stroke-miterlimit="10"/>
<path d="M360.729 29.4955C368.142 29.4955 374.152 26.5767 374.152 22.976C374.152 19.3754 368.142 16.4565 360.729 16.4565C353.316 16.4565 347.307 19.3754 347.307 22.976C347.307 26.5767 353.316 29.4955 360.729 29.4955Z" fill="#64BFB5"/>
<path d="M359.051 28.377C366.464 28.377 372.473 25.4581 372.473 21.8575C372.473 18.2569 366.464 15.338 359.051 15.338C351.638 15.338 345.628 18.2569 345.628 21.8575C345.628 25.4581 351.638 28.377 359.051 28.377Z" stroke="#2DB12D" stroke-width="0.475316" stroke-miterlimit="10"/>
<path d="M303.124 64.1701C310.537 64.1701 316.547 61.2512 316.547 57.6506C316.547 54.05 310.537 51.1311 303.124 51.1311C295.711 51.1311 289.702 54.05 289.702 57.6506C289.702 61.2512 295.711 64.1701 303.124 64.1701Z" fill="#64BFB5"/>
<path d="M301.446 63.0516C308.859 63.0516 314.869 60.1327 314.869 56.5321C314.869 52.9314 308.859 50.0126 301.446 50.0126C294.033 50.0126 288.024 52.9314 288.024 56.5321C288.024 60.1327 294.033 63.0516 301.446 63.0516Z" stroke="#2DB12D" stroke-width="0.475316" stroke-miterlimit="10"/>
<path d="M310.954 89.3373C318.367 89.3373 324.377 86.4184 324.377 82.8178C324.377 79.2172 318.367 76.2983 310.954 76.2983C303.541 76.2983 297.532 79.2172 297.532 82.8178C297.532 86.4184 303.541 89.3373 310.954 89.3373Z" fill="#64BFB5"/>
<path d="M309.276 88.2187C316.689 88.2187 322.698 85.2998 322.698 81.6992C322.698 78.0986 316.689 75.1797 309.276 75.1797C301.863 75.1797 295.854 78.0986 295.854 81.6992C295.854 85.2998 301.863 88.2187 309.276 88.2187Z" stroke="#2DB12D" stroke-width="0.475316" stroke-miterlimit="10"/>
<g opacity="0.3">
<path d="M311.266 127.333C313.161 123.943 313.507 120.53 312.039 119.709C310.57 118.889 307.844 120.972 305.95 124.362C304.055 127.752 303.709 131.165 305.177 131.986C306.645 132.806 309.372 130.723 311.266 127.333Z" fill="#64BFB5"/>
<path d="M310.381 127.846C312.276 124.455 312.622 121.042 311.154 120.222C309.686 119.401 306.96 121.484 305.065 124.874C303.17 128.264 302.824 131.678 304.293 132.498C305.761 133.319 308.487 131.236 310.381 127.846Z" stroke="#2DB12D" stroke-width="0.475316" stroke-miterlimit="10"/>
</g>
<g opacity="0.3">
<path d="M381.23 143.585C382.351 142.332 380.915 139.216 378.021 136.626C375.127 134.036 371.872 132.953 370.75 134.206C369.628 135.459 371.065 138.575 373.959 141.165C376.853 143.754 380.108 144.838 381.23 143.585Z" fill="#64BFB5"/>
<path d="M380.924 142.609C382.045 141.356 380.609 138.241 377.715 135.651C374.821 133.061 371.566 131.977 370.444 133.23C369.322 134.484 370.759 137.599 373.653 140.189C376.547 142.779 379.802 143.863 380.924 142.609Z" stroke="#2DB12D" stroke-width="0.475316" stroke-miterlimit="10"/>
</g>
<g opacity="0.3">
<path d="M318.592 108.351C319.713 107.098 318.277 103.982 315.383 101.392C312.489 98.8021 309.234 97.7185 308.112 98.9718C306.99 100.225 308.427 103.341 311.321 105.931C314.215 108.52 317.47 109.604 318.592 108.351Z" fill="#64BFB5"/>
<path d="M318.286 107.375C319.408 106.122 317.971 103.006 315.077 100.417C312.183 97.8266 308.928 96.7429 307.806 97.9962C306.685 99.2494 308.121 102.365 311.015 104.955C313.909 107.545 317.164 108.629 318.286 107.375Z" stroke="#2DB12D" stroke-width="0.475316" stroke-miterlimit="10"/>
</g>
</g>
<defs>
<clipPath id="clip0_154_89">
<rect width="421.13" height="311" fill="white"/>
</clipPath>
</defs>
</svg>
