<svg width="295" height="223" viewBox="0 0 295 223" fill="none" xmlns="http://www.w3.org/2000/svg">
<g clip-path="url(#clip0_154_49)">
<path d="M192.302 91.5082C191.657 91.6012 191 91.5518 190.377 91.3635C189.754 91.1752 189.179 90.8526 188.694 90.4184C188.209 89.9842 187.825 89.4489 187.569 88.8503C187.312 88.2516 187.191 87.6041 187.212 86.9533L172.437 81.2752L179.127 76.4897L192.132 82.6154C193.223 82.7236 194.237 83.2284 194.98 84.0341C195.724 84.8398 196.146 85.8903 196.167 86.9866C196.188 88.083 195.806 89.1488 195.094 89.9822C194.381 90.8156 193.387 91.3586 192.301 91.5083L192.302 91.5082Z" fill="#FFB7B7"/>
<path d="M183.858 87.4348L186.165 79.2971L186.052 79.2198L164.442 64.5403L145.762 45.7968L134.88 50.1443L135.595 53.5885L135.642 53.6307L160.478 75.8764L160.501 75.8876L183.858 87.4348Z" fill="#E6E7E8"/>
<path d="M161.72 106.022L128.276 101.334L131.22 80.8132H155.842L161.72 106.022Z" fill="#FFB6B6"/>
<path d="M104.895 206.509L111.755 208.104L121.169 182.401L111.044 180.048L104.895 206.509Z" fill="#FFB6B6"/>
<path d="M98.5112 217.554L103.431 218.698L105.389 214.257L106.558 219.424L119.607 222.457C120.232 222.602 120.888 222.544 121.478 222.29C122.068 222.037 122.561 221.601 122.886 221.047C123.211 220.493 123.35 219.85 123.284 219.212C123.217 218.573 122.948 217.972 122.516 217.497L113.768 207.879L114.86 203.183L103.747 201.291L98.5112 217.554Z" fill="#2F2E41"/>
<path d="M147.225 210.332H154.268L157.619 183.166H147.225V210.332Z" fill="#FFB6B6"/>
<path d="M143.507 222.536H148.558L149.46 217.767L151.769 222.536H165.165C165.807 222.536 166.433 222.33 166.95 221.95C167.467 221.569 167.849 221.033 168.04 220.42C168.231 219.807 168.221 219.149 168.012 218.542C167.803 217.935 167.405 217.411 166.876 217.046L156.178 209.658V204.837L144.926 205.509L143.507 222.536Z" fill="#2F2E41"/>
<path d="M127.854 97.8525L160.56 95.2508C170.212 117.796 164.075 153.787 156.658 194.303L146.138 195.663L145.322 130.559L118.95 191.125L107.986 190.564L127.854 97.8525Z" fill="#2F2E41"/>
<path d="M146.891 38.4843V27.4192C146.892 25.4715 146.51 23.5426 145.765 21.7429C145.02 19.9431 143.928 18.3077 142.551 16.9301C141.174 15.5525 139.54 14.4597 137.74 13.7141C135.941 12.9685 134.012 12.5847 132.064 12.5847C130.117 12.5847 128.188 12.9685 126.389 13.7141C124.589 14.4597 122.954 15.5525 121.577 16.9301C120.201 18.3077 119.109 19.9431 118.364 21.7429C117.619 23.5426 117.236 25.4715 117.237 27.4192C114.624 32.8648 116.259 35.4538 117.237 38.4843C117.238 39.012 117.448 39.5179 117.821 39.891C118.195 40.2642 118.7 40.4742 119.228 40.4751H144.9C145.427 40.4744 145.934 40.2645 146.307 39.8913C146.68 39.5182 146.89 39.0122 146.891 38.4843Z" fill="#2F2E41"/>
<path d="M135.724 40.3082C141.728 40.3082 146.595 35.4412 146.595 29.4375C146.595 23.4337 141.728 18.5667 135.724 18.5667C129.72 18.5667 124.853 23.4337 124.853 29.4375C124.853 35.4412 129.72 40.3082 135.724 40.3082Z" fill="#FFB7B7"/>
<path d="M150.4 28.3041C150.396 25.1945 149.159 22.2133 146.96 20.0145C144.762 17.8157 141.78 16.5789 138.671 16.5754H136.458C133.348 16.5789 130.367 17.8157 128.168 20.0145C125.969 22.2133 124.733 25.1945 124.729 28.3041V28.5255C126.387 29.6586 127.96 29.8243 129.406 28.5255L131.001 24.0589L131.32 28.5255H133.737L134.543 26.2721L134.704 28.5255C137.969 31.3062 144.144 29.9737 150.4 28.5255L150.4 28.3041Z" fill="#2F2E41"/>
<path d="M129.385 86.8111L157.063 85.7579L158.61 67.651C159.803 64.3368 159.822 61.489 158.667 59.193C157.674 57.3056 156.004 55.8629 153.993 55.153L147.937 47.8382C147.158 46.8981 146.179 46.1428 145.073 45.6268C143.966 45.1109 142.759 44.8472 141.538 44.8549L125.801 44.9625C125.422 44.7345 123.121 43.5651 118.583 45.5313C113.662 47.6643 114.804 55.0748 114.817 55.1492L114.828 55.2189L114.882 55.2663L125.349 64.0828L129.385 86.8111Z" fill="#E6E7E8"/>
<path d="M0.464372 223H278.371C278.494 223 278.612 222.951 278.699 222.864C278.787 222.777 278.836 222.659 278.836 222.536C278.836 222.413 278.787 222.294 278.699 222.207C278.612 222.12 278.494 222.071 278.371 222.071H0.464372C0.341214 222.071 0.223101 222.12 0.136015 222.207C0.0489288 222.294 0 222.413 0 222.536C0 222.659 0.0489288 222.777 0.136015 222.864C0.223101 222.951 0.341214 223 0.464372 223Z" fill="#CCCCCC"/>
<path d="M202.813 113.093C202.792 123.641 198.826 133.8 191.695 141.573C184.564 149.345 174.783 154.169 164.275 155.096C153.768 156.022 143.293 152.985 134.912 146.58C126.53 140.176 120.847 130.868 118.981 120.486C117.114 110.104 119.199 99.3994 124.825 90.4764C130.45 81.5535 139.211 75.0578 149.383 72.2664C159.555 69.4749 170.404 70.5896 179.796 75.3914C189.188 80.1931 196.444 88.3345 200.138 98.2151C200.23 98.4632 200.32 98.7113 200.407 98.9618V98.9641C200.797 100.065 201.141 101.187 201.438 102.329C202.354 105.843 202.816 109.461 202.813 113.093Z" fill="#70C8F1"/>
<path d="M155.625 84.3953C153.713 83.3616 151.591 82.7781 149.42 82.6893C147.248 82.6005 145.086 83.0087 143.096 83.8827C141.344 84.6451 139.5 86.0127 138.916 88.4822C141.279 87.0874 144.338 89.2912 144.947 92.8266L144.805 92.8657C144.483 95.3145 145.2 97.9805 146.589 99.4989C146.692 98.8138 146.947 98.1602 147.334 97.5858C147.721 97.0113 148.232 96.5303 148.828 96.1777C149.848 95.5072 150.976 95.0201 151.755 93.8676C152.678 92.5012 152.912 90.5043 153.279 88.6826C153.646 86.8609 154.341 84.9029 155.625 84.3953Z" fill="#2DB12D"/>
<path d="M142.395 105.233C141.741 106.216 140.866 106.833 140.082 107.601C139.176 108.425 138.582 109.535 138.399 110.746C138.3 111.602 138.454 112.471 138.432 113.336C138.411 114.201 138.123 115.174 137.535 115.389C136.606 115.725 135.897 114 134.942 113.879C134.184 113.785 133.501 114.978 133.721 116.013C133.94 117.048 134.973 117.507 135.566 116.831C136.103 117.731 135.724 119.364 134.919 119.64C134.834 120.208 134.749 120.772 134.666 121.339C132.629 119.915 130.571 118.466 128.839 116.379C126.912 114.079 125.717 111.254 125.408 108.27C125.183 105.871 125.516 103.128 124.415 101.282C123.534 99.8054 122.021 99.4793 120.66 99.5714C120.412 99.5879 120.162 99.6163 119.914 99.647C120.716 97.2362 121.736 94.903 122.959 92.6761C123.236 92.5573 123.494 92.3971 123.723 92.2011C124.989 91.126 125.552 88.9496 126.58 87.4444C126.646 87.3475 126.714 87.253 126.785 87.1609C127.837 85.7879 129.245 85.0814 130.606 84.4245C133.619 82.9618 136.719 81.4802 139.9 81.6834L138.995 81.7708C137.939 84.7293 136.882 87.6878 135.824 90.6463C135.663 91.1 135.501 91.5545 135.337 92.0098C134.737 93.6922 134.118 95.4834 134.21 97.3667C134.264 98.482 134.652 99.673 135.389 100.056C136.077 100.41 136.828 99.9755 137.492 99.5454C137.773 99.3658 138.052 99.1862 138.333 99.0042C139.342 98.3544 140.46 97.6881 141.526 98.1228C142.502 98.5198 143.222 99.8455 143.359 101.275C143.485 102.665 143.146 104.057 142.395 105.233Z" fill="#2DB12D"/>
<path d="M148.396 125.432C145.45 123.617 142.503 121.803 139.556 119.988L139.606 119.859C137.774 120.557 137.013 123.814 137.316 126.478C137.618 129.141 138.645 131.522 139.164 134.117C139.863 137.669 139.599 141.343 138.399 144.758C142.274 140.41 145.704 135.684 148.636 130.652C149.046 130.018 149.358 129.326 149.562 128.599C149.778 127.824 149.701 126.997 149.345 126.276C149.104 125.92 148.778 125.63 148.396 125.432Z" fill="#2DB12D"/>
<path d="M136.766 92.4214C136.42 93.1644 136.367 94.0105 136.617 94.7911C136.908 95.42 137.435 95.9085 138.084 96.1503L139.713 96.9574C140.254 97.2259 140.838 97.4971 141.39 97.2762C142.056 97.0097 142.518 95.9655 142.399 94.9961C142.272 93.9646 141.621 93.255 141.02 92.6508C140.178 91.8052 139.337 90.9596 138.495 90.114L138.021 90.6949C137.508 91.1952 137.084 91.779 136.766 92.4214Z" fill="#2DB12D"/>
<path d="M194.084 103.449C194.816 103.622 195.549 103.794 196.281 103.967C196.154 106.441 194.927 108.73 193.283 109.56C192.597 109.905 191.834 110.032 191.267 110.678C190.754 111.264 190.494 112.176 190.256 113.048C189.837 114.569 189.419 116.091 189.001 117.613C188.552 119.253 187.975 121.075 186.808 121.666C185.806 122.174 184.66 121.552 183.89 120.51C183.119 119.468 182.649 118.067 182.193 116.701C182.221 118.19 181.529 119.65 180.548 120.167C179.565 120.685 178.37 120.217 177.713 119.062C177.24 118.232 177.044 117.138 176.581 116.297C176.118 115.456 175.147 114.974 174.641 115.763C174.308 116.287 174.35 117.091 174.185 117.757C174.101 118.2 173.882 118.605 173.558 118.917C173.234 119.229 172.82 119.433 172.375 119.499C171.965 119.489 171.562 119.397 171.189 119.226C170.817 119.056 170.483 118.812 170.208 118.509C168.761 117.028 167.819 115.129 167.516 113.081C167.311 112.099 167.337 111.083 167.592 110.113C167.883 109.194 168.584 108.485 169.282 108.66C169.74 107.691 168.835 106.405 168.02 106.519C167.202 106.632 166.562 107.509 165.891 108.182C165.222 108.856 164.286 109.345 163.613 108.676C163.628 108.921 163.545 109.161 163.383 109.345C163.22 109.528 162.992 109.64 162.747 109.655C162.723 109.657 162.699 109.657 162.675 109.657C162.227 109.528 161.811 109.308 161.453 109.009C159.91 108.048 157.951 108.686 156.854 110.505C157.54 107.589 158.544 104.243 160.649 103.558C161.51 103.277 162.448 103.508 163.261 103.021C164.7 102.159 164.99 98.9003 163.747 97.5558C163.906 98.827 163.875 100.311 163.204 101.181C162.533 102.05 161.124 101.483 161.21 100.198C161.19 100.378 161.115 100.549 160.993 100.684C160.871 100.819 160.71 100.912 160.532 100.95C160.354 100.987 160.169 100.968 160.003 100.894C159.837 100.82 159.698 100.695 159.607 100.538C159.161 99.8573 159.199 98.7444 159.515 97.9315C159.842 97.1952 160.31 96.5304 160.893 95.9749C162.015 94.7722 163.154 93.5552 164.454 92.799C165.756 92.0429 167.259 91.7877 168.563 92.5391C169.251 92.9361 169.856 93.5977 170.558 93.9475C170.723 94.0498 170.906 94.1186 171.098 94.1501C171.289 94.1815 171.485 94.1749 171.674 94.1306C171.863 94.0864 172.041 94.0053 172.199 93.8921C172.357 93.7789 172.49 93.6358 172.593 93.4709C172.601 93.4581 172.608 93.4453 172.616 93.4323C173.138 92.5154 172.892 91.1544 173.086 90.0083C173.433 87.9832 175.459 87.0357 176.581 88.3731C175.742 88.1581 174.875 89.1505 174.771 90.3533C174.665 91.5561 175.272 92.7707 176.085 93.1346C177.451 93.7395 178.788 92.2177 179.821 90.8094C180.898 89.3348 181.977 87.8611 183.058 86.3882C183.231 86.1374 183.424 85.9018 183.637 85.684C183.975 85.3541 184.427 85.1652 184.899 85.1555C185.372 85.1459 185.83 85.3162 186.182 85.632C187.274 86.5229 187.786 88.3495 188.682 89.6066C189.982 91.4332 191.926 91.8775 193.736 92.2319C195.086 92.4942 196.436 92.7581 197.787 93.0235C198.687 94.6987 199.473 96.4333 200.138 98.2151C197.661 99.3446 195.559 101.161 194.084 103.449Z" fill="#2DB12D"/>
<path d="M201.438 102.329C201.161 103.145 201.009 103.998 200.989 104.86C199.831 103.447 199.646 100.798 200.407 98.9641C200.797 100.065 201.141 101.187 201.438 102.329Z" fill="#2DB12D"/>
<path d="M198.446 131.881C197.434 133.937 196.256 135.907 194.925 137.772C194.074 137.408 193.16 138.058 192.364 138.667C191.532 139.305 190.532 139.927 189.679 139.346C188.807 138.75 188.526 137.084 188.802 135.763C189.12 134.545 189.676 133.401 190.438 132.398C191.147 131.34 191.905 130.241 192.89 129.83C193.878 129.419 195.147 130 195.435 131.404L196.135 131.38C195.743 130.841 195.948 129.726 196.475 129.53C197.082 129.3 197.609 130.135 197.969 130.872C198.129 131.205 198.292 131.541 198.446 131.881Z" fill="#2DB12D"/>
<path d="M171.657 121.9C170.154 121.994 168.963 120.143 168.172 118.323C167.38 116.502 166.658 114.42 165.302 113.493C164.527 112.963 163.643 112.891 162.802 112.634C162.325 112.514 161.884 112.281 161.515 111.956C161.146 111.631 160.859 111.223 160.68 110.765L159.726 110.38C158.392 111.047 157.17 111.918 156.105 112.962C154.888 114.255 154.13 115.912 153.947 117.679C153.765 119.588 154.438 121.716 155.695 122.433C156.688 123 157.845 122.643 158.851 123.161C160.108 123.809 160.854 125.692 161.136 127.551C161.419 129.41 161.347 131.342 161.549 133.222C161.752 135.102 162.309 137.058 163.461 138.021C164.904 139.227 167.021 138.225 167.668 136.03C167.985 134.954 167.974 133.739 168.212 132.622C168.63 130.654 169.758 129.194 170.653 127.58C171.548 125.965 172.253 123.773 171.657 121.9Z" fill="#2DB12D"/>
<path d="M156.801 102.563C156.942 102.692 157.073 102.831 157.193 102.979C157.318 103.193 157.381 103.438 157.377 103.687C157.373 103.935 157.301 104.178 157.169 104.389C157.35 104.378 157.527 104.331 157.689 104.248C157.85 104.166 157.993 104.051 158.108 103.911C158.383 103.599 158.624 103.259 158.829 102.896C158.925 102.772 158.994 102.629 159.03 102.477C159.067 102.324 159.071 102.166 159.041 102.011C158.97 101.809 158.802 101.722 158.684 101.57C158.521 101.272 158.41 100.948 158.355 100.613C158.29 100.298 158.138 100.009 157.917 99.7757C157.696 99.5429 157.414 99.3762 157.104 99.2946L157.179 99.309C157.051 99.3851 156.95 99.4994 156.89 99.6359C156.83 99.7724 156.814 99.9243 156.845 100.07C156.89 100.365 157.08 100.61 157.061 100.911C157.034 101.343 156.602 101.546 156.575 101.979C156.571 102.196 156.652 102.405 156.801 102.563Z" fill="#2DB12D"/>
<path d="M154.226 95.2138L154.232 95.2125C154.279 95.1703 154.321 95.1247 154.361 95.0759L154.226 95.2138Z" fill="#2DB12D"/>
<path d="M154.676 97.2438C154.857 97.0853 154.991 96.8803 155.063 96.6511C155.135 96.4219 155.142 96.1773 155.085 95.9441C154.975 95.4523 154.589 95.1217 154.232 95.2125C154.129 95.3174 154 95.3942 153.859 95.4358C153.718 95.4774 153.568 95.4824 153.425 95.4503C153.204 95.3936 152.962 95.2474 152.771 95.4135C152.662 95.5376 152.585 95.687 152.548 95.8483C152.478 96.0655 152.407 96.2827 152.336 96.4999C152.302 96.5777 152.294 96.6639 152.311 96.7468C152.324 96.7801 152.346 96.8093 152.374 96.8316C152.403 96.8539 152.436 96.8687 152.471 96.8744C152.896 96.9996 153.32 97.1247 153.745 97.2499C153.891 97.3172 154.05 97.3516 154.211 97.3505C154.372 97.3495 154.531 97.313 154.676 97.2438Z" fill="#2DB12D"/>
<path d="M186.729 125.269C186.532 124.947 186.336 124.626 186.14 124.305C185.947 123.933 185.683 123.602 185.364 123.331C185.295 123.273 185.215 123.229 185.129 123.202C185.043 123.175 184.952 123.165 184.862 123.173C184.772 123.181 184.685 123.206 184.605 123.248C184.524 123.29 184.453 123.347 184.396 123.416L184.385 123.429L184.409 123.612C184.935 124.176 185.293 124.874 185.443 125.63C185.488 125.958 185.472 126.298 185.512 126.628C185.516 126.781 185.55 126.932 185.612 127.071C185.675 127.211 185.764 127.337 185.875 127.442C186.184 127.648 186.547 127.344 186.767 126.973C186.964 126.668 187.052 126.305 187.018 125.944C186.969 125.701 186.87 125.472 186.729 125.269Z" fill="#2DB12D"/>
<path d="M189.808 125.687C189.845 125.386 189.821 125.081 189.736 124.79C189.722 124.396 189.826 124.007 190.035 123.673C190.243 123.358 190.401 123.013 190.502 122.65C190.545 122.484 190.537 122.309 190.48 122.148C190.415 122.002 190.258 121.936 190.167 122.051L190.361 122.176C190.1 122.129 189.832 122.142 189.577 122.214C189.431 122.269 189.301 122.359 189.198 122.476C189.095 122.593 189.021 122.732 188.983 122.883C188.951 123.119 188.899 123.352 188.827 123.578C188.712 123.815 188.489 123.894 188.349 124.102C188.253 124.286 188.205 124.491 188.208 124.699C188.212 124.906 188.267 125.11 188.368 125.291C188.544 125.587 188.824 125.807 189.153 125.908C189.389 125.993 189.7 125.997 189.808 125.687Z" fill="#2DB12D"/>
<path d="M195.29 127.341C195.375 127.563 195.489 127.773 195.63 127.965C195.892 128.229 196.249 128.067 196.567 128.002C196.856 127.957 197.152 127.99 197.424 128.099C197.695 128.208 197.932 128.388 198.109 128.621C197.986 128.005 197.716 127.428 197.324 126.938C196.931 126.447 196.426 126.059 195.852 125.804C195.106 125.546 194.319 125.423 193.53 125.441L193.395 125.476C193.739 126.476 194.818 126.453 195.29 127.341Z" fill="#2DB12D"/>
<path d="M172.069 129.387L172.071 129.391L172.11 129.316L172.069 129.387Z" fill="#2DB12D"/>
<path d="M171.237 130.997C171.055 131.326 170.899 131.669 170.77 132.022C170.599 132.594 170.486 133.181 170.432 133.776C170.39 134.114 170.377 134.546 170.589 134.71C170.649 134.751 170.723 134.768 170.795 134.758C170.867 134.748 170.934 134.712 170.981 134.657C171.099 134.532 171.195 134.389 171.266 134.234C171.683 133.517 172.006 132.75 172.228 131.951C172.46 131.104 172.405 130.204 172.071 129.391C171.793 129.927 171.515 130.462 171.237 130.997Z" fill="#2DB12D"/>
<path d="M163.213 88.1045C163.345 88.2337 163.512 88.3213 163.693 88.3567C163.875 88.3921 164.062 88.3737 164.233 88.3037C164.587 88.1489 164.912 87.9344 165.194 87.6695C165.427 87.4971 165.624 87.2815 165.776 87.0345C165.859 86.8868 165.913 86.7242 165.933 86.5558C165.953 86.3874 165.94 86.2167 165.895 86.0534C165.83 85.8969 165.726 85.7596 165.593 85.6545C165.46 85.5494 165.302 85.4799 165.135 85.4526C164.664 85.3128 164.193 85.1731 163.721 85.0333L164.062 84.7261C163.712 84.5378 163.324 84.8872 163.104 85.3197C162.964 85.6021 162.866 85.9038 162.814 86.2149C162.739 86.54 162.736 86.8774 162.805 87.2037C162.874 87.53 163.013 87.8374 163.213 88.1045Z" fill="#2DB12D"/>
<path d="M171.533 85.3114C171.666 85.4578 171.85 85.5482 172.047 85.5643C172.244 85.5803 172.44 85.5207 172.594 85.3977C172.728 85.2977 172.838 85.1707 172.919 85.0251C173 84.8794 173.049 84.7184 173.064 84.5524C173.097 84.1817 172.914 83.7697 172.652 83.7377L172.712 83.3906C172.208 83.2996 171.587 83.2813 171.317 83.8937C171.226 84.1283 171.198 84.3827 171.236 84.6315C171.274 84.8803 171.376 85.1147 171.533 85.3114Z" fill="#2DB12D"/>
<path d="M121.863 122.455C121.379 122.02 120.995 121.484 120.741 120.885C120.486 120.286 120.365 119.638 120.388 118.988C120.41 118.337 120.575 117.699 120.87 117.119C121.165 116.539 121.584 116.03 122.098 115.629L116.986 100.649L124.95 102.717L128.579 116.625C129.195 117.532 129.458 118.634 129.316 119.721C129.175 120.809 128.639 121.807 127.811 122.526C126.982 123.244 125.919 123.634 124.822 123.621C123.726 123.609 122.672 123.194 121.861 122.456L121.863 122.455Z" fill="#FFB7B7"/>
<path d="M119.58 113.364L127.306 109.921L124.71 83.7875L127.128 57.4358L116.812 51.8687L114.626 54.6245V54.687L113.468 88.0094L113.474 88.0345L119.58 113.364Z" fill="#E6E7E8"/>
<path d="M237.939 191.239C233.571 189.23 228.859 186.863 223.803 184.138C197.654 170.041 165.498 148.05 133.26 122.216C101.022 96.3816 72.5521 69.7905 53.0957 47.3419C43.6179 36.4062 36.7909 27.041 32.8046 19.506C28.5841 11.5289 27.7329 5.87594 30.2742 2.70447C35.2255 -3.47398 51.3497 2.09103 64.0045 7.84753L63.542 8.8645C46.1637 0.959244 34.6586 -0.980192 31.1461 3.40319C26.6721 8.98597 34.9803 24.7342 53.9399 46.6101C73.3536 69.0095 101.771 95.5506 133.959 121.344C166.146 147.137 198.241 169.088 224.333 183.155C249.814 196.892 266.994 201.569 271.468 195.986C275.183 191.35 270.116 179.676 257.202 163.112L258.083 162.425C267.466 174.46 277.557 190.174 272.34 196.684C269.799 199.856 264.096 200.257 255.391 197.876C250.429 196.519 244.589 194.297 237.939 191.239Z" fill="#2DB12D"/>
<path d="M70.6515 115.911C58.607 110.373 47.6 104.811 37.9595 99.3672C25.3585 92.2516 15.7818 85.7243 9.49565 79.9673C2.84026 73.8715 0.139164 68.8332 1.46738 64.9922C4.0545 57.5097 21.1113 57.3335 34.9647 58.5034L34.8705 59.6169C15.8464 58.0101 4.35867 60.0488 2.52299 65.3575C0.185054 72.1189 13.3014 84.1602 38.5088 98.3942C64.32 112.969 100.003 128.419 138.985 141.898C177.967 155.377 215.573 165.269 244.874 169.751C273.489 174.128 291.242 172.761 293.58 165.999C295.521 160.385 286.826 151.092 269.098 139.83L269.696 138.887C282.578 147.07 297.362 158.479 294.636 166.364C293.308 170.205 288.071 172.499 279.072 173.181C270.572 173.826 259.009 173.043 244.705 170.855C215.339 166.364 177.664 156.454 138.62 142.954C114.127 134.485 90.925 125.234 70.6515 115.911Z" fill="#2DB12D"/>
<path d="M88.9246 59.0554C92.5202 59.0554 95.4351 56.1405 95.4351 52.5449C95.4351 48.9492 92.5202 46.0344 88.9246 46.0344C85.3289 46.0344 82.4141 48.9492 82.4141 52.5449C82.4141 56.1405 85.3289 59.0554 88.9246 59.0554Z" fill="#E6E6E6"/>
<path d="M217.252 138.519C219.453 138.519 221.237 136.735 221.237 134.534C221.237 132.333 219.453 130.549 217.252 130.549C215.051 130.549 213.267 132.333 213.267 134.534C213.267 136.735 215.051 138.519 217.252 138.519Z" fill="#2DB12D"/>
<path d="M22.3347 173.503C25.9304 173.503 28.8452 170.589 28.8452 166.993C28.8452 163.397 25.9304 160.482 22.3347 160.482C18.7391 160.482 15.8242 163.397 15.8242 166.993C15.8242 170.589 18.7391 173.503 22.3347 173.503Z" fill="#E6E6E6"/>
</g>
<defs>
<clipPath id="clip0_154_49">
<rect width="294.964" height="223" fill="white"/>
</clipPath>
</defs>
</svg>
