<svg width="325" height="216" viewBox="0 0 325 216" fill="none" xmlns="http://www.w3.org/2000/svg">
<g clip-path="url(#clip0_154_171)">
<path d="M304.202 204.992L300.556 207.362L289.679 194.43L295.059 190.932L304.202 204.992Z" fill="#A0616A"/>
<path d="M306.803 208.711L295.593 216L295.501 215.858C294.749 214.701 294.487 213.293 294.773 211.942C295.059 210.592 295.87 209.411 297.027 208.658L298.064 205.773L302.895 204.843L303.873 204.206L306.803 208.711Z" fill="#2F2E41"/>
<path d="M241.73 211.203L237.382 211.203L235.314 194.431L241.731 194.432L241.73 211.203Z" fill="#A0616A"/>
<path d="M241.884 215.739L228.513 215.738V215.569C228.513 214.189 229.061 212.865 230.037 211.889C231.013 210.913 232.337 210.365 233.717 210.365L236.16 208.512L240.717 210.365H241.884L241.884 215.739Z" fill="#2F2E41"/>
<path d="M286.737 108.61L247.746 109.468L243.881 114.299C243.881 114.299 244.215 112.595 243.918 114.466C243.62 116.337 236.098 153.638 237.52 154.889C238.942 156.14 234.824 164.777 234.521 165.304C234.219 165.83 230.959 191.829 234.521 193.967L235.86 203.042H242.086C242.086 203.042 248.324 195.824 247.069 194.515C245.813 193.206 249.404 188.855 249.541 186.522C249.678 184.188 250.989 173.605 249.974 171.908C248.958 170.211 247.585 163.843 250.161 161.375C252.738 158.906 264.755 128.568 264.755 128.568C264.755 128.568 268.247 164.134 268.239 166.927C268.228 170.559 270.613 168.761 270.613 171.95C270.613 172.594 278.379 189.15 283.598 194.325L294.391 202.627L299.373 198.891V193.494C299.373 193.494 294.756 183.482 293.146 181.871C291.535 180.261 285.589 175.331 285.589 173.077C285.589 170.822 282.79 170.037 284.673 167.048C286.556 164.059 285.911 162.771 285.267 161.482C284.623 160.194 285.845 107.409 285.845 107.409L286.737 108.61Z" fill="#2F2E41"/>
<path d="M270.479 30.3418C276.986 30.3418 282.261 25.0667 282.261 18.5595C282.261 12.0523 276.986 6.77722 270.479 6.77722C263.972 6.77722 258.697 12.0523 258.697 18.5595C258.697 25.0667 263.972 30.3418 270.479 30.3418Z" fill="#A0616A"/>
<path d="M279.892 113.114L283.209 103.13L289.176 104.229L285.294 114.659C285.53 115.27 285.591 115.935 285.47 116.579C285.349 117.223 285.051 117.82 284.609 118.304C284.167 118.788 283.598 119.138 282.968 119.317C282.338 119.495 281.67 119.494 281.04 119.314C280.41 119.134 279.843 118.781 279.403 118.296C278.962 117.812 278.665 117.213 278.546 116.569C278.427 115.925 278.49 115.26 278.727 114.65C278.965 114.039 279.369 113.507 279.892 113.114Z" fill="#A0616A"/>
<path d="M211.108 93.8193L219.234 87.1381L223.699 91.2478L214.856 98.0059C214.73 98.6488 214.427 99.2439 213.981 99.7242C213.536 100.204 212.965 100.551 212.333 100.725C211.702 100.898 211.034 100.892 210.406 100.707C209.777 100.523 209.213 100.166 208.776 99.6779C208.339 99.1897 208.047 98.5894 207.932 97.9443C207.818 97.2992 207.885 96.635 208.128 96.0263C208.37 95.4177 208.777 94.8886 209.304 94.4987C209.83 94.1089 210.455 93.8736 211.108 93.8193Z" fill="#A0616A"/>
<path d="M256.372 16.4984C257.642 16.8927 258.866 17.1252 259.693 16.0832C260.519 15.0413 260.303 13.8499 261.532 13.3476C262.559 13.003 263.678 13.0548 264.67 13.4929C264.848 13.5593 265.023 13.634 265.193 13.7087C265.288 13.6257 265.384 13.5469 265.488 13.4721C266.269 12.9167 267.233 12.682 268.182 12.8162C267.488 13.1513 266.917 13.6958 266.55 14.3729C266.891 14.5431 267.235 14.7133 267.584 14.8586C269.049 15.4581 270.634 15.7079 272.213 15.5883C273.792 15.4687 275.321 14.9829 276.679 14.1695C275.318 17.7561 276.376 19.0347 278.373 22.31L278.452 22.5009C278.253 21.6417 280.864 20.6495 280.864 21.8949C280.749 23.1708 280.47 24.4265 280.033 25.631C282.595 21.7745 284.106 17.2622 283.114 12.9325C282.902 12.0234 282.806 11.0478 282.229 10.3089C281.652 9.57418 280.59 9.14244 279.751 9.55756C279.647 8.14969 279.164 6.7963 278.352 5.64127C277.54 4.48624 276.431 3.57275 275.141 2.99791C273.852 2.42306 272.431 2.20835 271.029 2.37661C269.628 2.54487 268.298 3.08979 267.181 3.95346C266.144 4.75464 265.326 5.8049 264.4 6.73892C263.474 7.67295 262.378 8.52391 261.083 8.75638C260.261 8.90168 259.336 8.8145 258.68 9.33342C257.92 9.93535 257.912 10.9939 257.916 12.0109C258.659 11.9897 259.392 12.1906 260.02 12.5879C259.251 12.6073 258.507 12.8688 257.895 13.3352C257.883 13.3424 257.872 13.3508 257.862 13.3601C257.638 15.0704 257.729 15.4315 256.372 16.4984Z" fill="#2F2E41"/>
<path d="M297.825 55.1182C297.551 53.804 297.008 52.5605 296.231 51.4658C295.454 50.3711 294.459 49.4486 293.309 48.7562C293.223 48.3164 293.07 48.0351 292.836 47.9519C289.487 46.7613 280.138 41.2613 280.138 41.2613L279.355 34.972L262.437 34.1592L258.108 41.2613C258.108 41.2613 246.894 42.3885 247.102 46.4936C244.386 49.8809 232.297 65.0165 225.052 75.0258C221.589 79.8097 219.231 83.424 219.533 84.0224C220.553 86.0379 219.121 84.678 217.518 85.0422C215.915 85.4064 216.692 86.3534 216.729 87.7496C216.765 89.1459 211.253 92.0838 211.253 92.0838C214.616 93.2858 218.829 98.2274 218.829 98.2274C218.829 98.2274 222.908 93.9296 223.649 93.4804C224.389 93.0312 224.802 92.3756 227.146 91.5622C229.489 90.7489 228.505 90.1296 228.675 88.4056C228.845 86.6816 229.416 87.9564 232.706 86.3661C235.997 84.7757 233.326 85.3827 234.236 83.2094C235.147 81.0362 234.855 82.226 237.818 80.4292C239.598 79.3492 241.367 77.7632 243.828 75.0258C245.461 73.209 247.399 70.8859 249.85 67.8637C249.867 67.8432 249.882 67.8218 249.899 67.8012C250.064 70.2512 250.19 72.7021 250.266 75.0258C250.48 81.6284 250.276 87.1958 249.315 88.729C247.966 90.8808 245.682 98.0824 243.826 104.405C243.467 105.632 243.403 106.926 243.641 108.181C243.879 109.436 244.411 110.618 245.193 111.628C245.976 112.638 246.987 113.448 248.144 113.991C249.3 114.535 250.569 114.796 251.846 114.754C263.36 114.375 280.21 113.496 283.494 111.569C285.28 111.825 287.045 112.212 288.774 112.73C288.774 112.73 289.936 106.919 290.323 106.144C290.711 105.37 290.711 104.595 292.26 102.658C293.81 100.721 292.648 100.721 291.873 99.1717C291.098 97.6222 292.26 98.3969 294.197 95.2979C296.134 92.199 294.197 94.1358 293.81 91.8116C293.422 89.4873 293.81 90.6495 295.359 87.5505C296.643 84.9827 297.395 81.6135 298.276 75.0258C298.459 73.6631 298.646 72.166 298.846 70.5061C299.504 65.0228 298.671 59.1668 297.825 55.1182Z" fill="#2CA2D8"/>
<path d="M112.763 206.658C112.505 206.67 112.25 206.602 112.031 206.464C111.813 206.326 111.642 206.124 111.542 205.885C111.443 205.647 111.419 205.383 111.474 205.131C111.529 204.878 111.66 204.649 111.85 204.473L111.936 204.13C111.925 204.102 111.913 204.075 111.902 204.047C111.642 203.433 111.206 202.909 110.649 202.542C110.092 202.174 109.439 201.979 108.772 201.982C108.104 201.984 107.453 202.184 106.899 202.555C106.344 202.927 105.912 203.454 105.657 204.071C104.635 206.531 103.335 208.995 103.015 211.596C102.874 212.745 102.933 213.911 103.191 215.04C100.792 209.807 99.546 204.12 99.538 198.363C99.5375 196.918 99.6177 195.475 99.7784 194.039C99.9112 192.862 100.095 191.694 100.331 190.534C101.617 184.239 104.377 178.339 108.386 173.318C110.326 172.259 111.896 170.631 112.882 168.654C113.239 167.943 113.492 167.184 113.632 166.4C113.413 166.429 112.807 163.096 112.972 162.891C112.667 162.428 112.121 162.198 111.788 161.747C110.131 159.5 107.848 159.892 106.657 162.945C104.111 164.23 104.087 166.36 105.649 168.41C106.642 169.713 106.779 171.477 107.651 172.873C107.561 172.988 107.468 173.099 107.378 173.214C105.738 175.323 104.309 177.587 103.111 179.974C103.402 177.3 103.055 174.594 102.096 172.08C101.125 169.737 99.3048 167.764 97.7018 165.739C95.7763 163.306 91.828 164.368 91.4888 167.452C91.4855 167.482 91.4823 167.511 91.4791 167.541C91.7172 167.676 91.9503 167.818 92.1783 167.969C92.4648 168.16 92.6868 168.434 92.8152 168.754C92.9436 169.073 92.9725 169.424 92.8979 169.761C92.8234 170.097 92.649 170.403 92.3976 170.639C92.1462 170.874 91.8294 171.028 91.4889 171.081L91.454 171.086C91.5389 171.944 91.6888 172.795 91.9025 173.63C89.8461 181.583 94.2858 184.48 100.625 184.61C100.765 184.682 100.901 184.753 101.041 184.821C99.8377 188.233 99.0826 191.786 98.7953 195.392C98.6326 197.519 98.6422 199.656 98.824 201.782L98.8132 201.707C98.3539 199.343 97.0928 197.21 95.243 195.668C92.4956 193.411 88.614 192.58 85.65 190.766C85.335 190.564 84.9688 190.456 84.5944 190.455C84.2201 190.454 83.8533 190.56 83.5373 190.761C83.2213 190.962 82.9694 191.249 82.8111 191.588C82.6528 191.927 82.5948 192.304 82.644 192.676C82.6479 192.702 82.652 192.728 82.6561 192.755C83.0979 192.935 83.5281 193.142 83.9442 193.375C84.1823 193.51 84.4154 193.652 84.6434 193.803C84.9299 193.995 85.1519 194.268 85.2803 194.588C85.4087 194.907 85.4375 195.259 85.3629 195.595C85.2884 195.931 85.114 196.237 84.8626 196.473C84.6112 196.708 84.2945 196.863 83.9539 196.915L83.919 196.92C83.8939 196.924 83.8724 196.928 83.8473 196.931C84.6023 198.734 85.6619 200.393 86.9797 201.836C88.2655 208.779 93.7883 209.437 99.6959 207.416H99.6995C100.348 210.232 101.287 212.974 102.502 215.596H112.512C112.548 215.485 112.581 215.37 112.613 215.259C111.686 215.317 110.756 215.262 109.843 215.094C110.586 214.183 111.328 213.264 112.071 212.353C112.088 212.336 112.103 212.318 112.118 212.299C112.495 211.833 112.875 211.37 113.252 210.903L113.252 210.903C113.272 209.473 113.108 208.046 112.763 206.658Z" fill="#F2F2F2"/>
<path d="M35.7637 191.517L38.5258 194.436L51.3513 184.934L47.2748 180.626L35.7637 191.517Z" fill="#C78F8F"/>
<path d="M40.2899 193.132L37.1628 190.194L36.395 189.475L28.4341 195.84L30.505 198.028L32.9425 196.465L31.8227 199.421L37.3132 205.224C37.5763 205.503 37.9214 205.69 38.2983 205.758C38.6751 205.826 39.0639 205.772 39.408 205.604C39.752 205.436 40.0332 205.162 40.2106 204.822C40.388 204.483 40.4523 204.096 40.394 203.717L39.2091 196.051L41.2971 194.076L40.2899 193.132Z" fill="#2F2E41"/>
<path d="M96.468 85.2249L95.5923 94.7853C95.5923 94.7853 94.0637 101.988 95.1221 101.404C96.1805 100.821 94.2828 103.448 94.7826 105.727C95.2824 108.005 90.5134 124.998 92.6734 123.237C94.8334 121.477 91.4251 133.638 89.2695 139.637C88.6095 141.492 87.9313 143.369 87.2488 145.232C87.1141 145.61 86.9793 145.982 86.8403 146.359C85.9555 148.784 85.0708 151.173 84.2222 153.428C84.101 153.742 83.9841 154.056 83.8675 154.366C83.8629 154.375 83.8629 154.384 83.8585 154.384C81.0653 161.735 78.6718 167.519 77.7153 168.475C77.2169 168.974 69.3091 174.686 61.3383 180.407C52.9725 186.411 44.5391 192.428 44.5391 192.428L36.6626 184.166C36.6626 184.166 36.8512 184.112 37.206 184.004C37.8616 183.815 39.0741 183.46 40.6638 182.989C47.2917 181.036 38.8719 177.995 44.8895 175.822C46.5868 175.211 47.7184 174.735 47.9743 174.484C49.4697 173.024 51.4771 169.544 52.4245 171.004C53.372 172.463 57.6696 161.618 58.9089 160.545C59.5735 159.966 61.7425 157.258 63.6016 154.878C65.2001 152.83 66.5742 151.021 66.5742 151.021C66.5742 151.021 66.6012 150.051 66.6415 148.506C66.7001 146.22 66.7854 142.668 66.8753 139.112C66.8706 139.107 66.8706 139.107 66.8753 139.107C66.9066 137.769 66.938 136.431 66.9696 135.16C66.9919 134.176 67.0143 133.229 67.0369 132.353C67.0952 129.731 67.1355 127.746 67.1355 127.252C67.1355 125.631 67.1355 126.893 68.4154 125.914C68.6065 125.764 68.788 125.602 68.9588 125.429C69.2324 125.183 69.4848 124.914 69.7133 124.625C69.8076 124.423 69.2192 124.697 68.4558 124.544C68.0423 124.461 67.66 124.265 67.3511 123.978C65.7434 122.533 67.4769 118.087 67.4769 118.087C63.8216 110.776 64.0867 104.781 65.7974 100.16C67.0767 96.8446 69.1071 93.8704 71.7294 91.4714C72.7274 90.5203 73.8147 89.6676 74.9763 88.925L75.0886 88.319L76.3235 81.6325C76.9801 81.2717 77.6631 80.961 78.3665 80.703C80.56 79.916 82.9135 79.6815 85.219 80.0204C87.5105 80.352 89.7289 81.0702 91.7799 82.1444C93.4564 82.9867 95.0296 84.0204 96.468 85.2249Z" fill="#2F2E41"/>
<path d="M61.979 206.412L65.9805 206.785L69.3525 191.183L63.4461 190.633L61.979 206.412Z" fill="#C78F8F"/>
<path d="M73.5035 212.528L67.5579 207.548L67.8274 204.683L66.4444 204.638L62.1604 204.499H62.1558L61.1051 204.463L59.3223 214.495L62.3264 214.773L63.1213 211.989L64.2305 214.953L65.8202 215.101L72.1833 215.694C72.2372 215.698 72.2956 215.703 72.3495 215.703C72.6025 215.703 72.8526 215.649 73.0833 215.546C73.314 215.442 73.52 215.29 73.6877 215.101C73.9481 214.816 74.1075 214.453 74.1411 214.068C74.1674 213.779 74.1231 213.488 74.0121 213.219C73.901 212.951 73.7265 212.714 73.5035 212.528Z" fill="#2F2E41"/>
<path d="M84.2227 153.427C82.7003 161.713 76.2563 181.139 72.3586 192.509C70.5848 197.704 69.3455 201.221 69.3455 201.221L67.3247 200.583H67.3201L63.9028 199.505L62.6589 199.11H62.6543L61.1456 198.629C61.1456 198.629 61.3208 189.352 61.3387 180.407C61.3521 176.657 61.3341 172.961 61.2624 170.033C61.1815 166.841 61.0423 164.555 60.8134 164.101C59.8657 162.242 61.451 162.045 63.126 161.578C64.8053 161.106 63.4941 160.397 62.8429 158.888C62.4031 157.882 63.2696 156.539 63.8849 155.776C64.0546 155.561 64.236 155.356 64.4282 155.161C64.4282 155.161 64.1318 155.057 63.602 154.878C65.2005 152.83 66.5746 151.02 66.5746 151.02C66.5746 151.02 66.6016 150.05 66.6419 148.506C66.7005 146.22 66.7858 142.668 66.8757 139.111C66.8711 139.107 66.8711 139.107 66.8757 139.107C66.907 137.769 66.9384 136.43 66.97 135.16C69.5384 137.131 72.0352 139.062 74.2985 140.849C74.3013 140.851 74.3035 140.854 74.3051 140.857C74.3066 140.86 74.3074 140.864 74.3075 140.867C79.7455 145.165 83.8276 148.614 84.4023 149.709C84.6627 150.203 84.5728 151.523 84.2227 153.427Z" fill="#2F2E41"/>
<path d="M324.098 215.998H0.449056C0.329959 215.998 0.21574 215.951 0.131525 215.867C0.0473108 215.782 0 215.668 0 215.549C0 215.43 0.0473108 215.316 0.131525 215.232C0.21574 215.147 0.329959 215.1 0.449056 215.1H324.098C324.217 215.1 324.331 215.147 324.415 215.232C324.499 215.316 324.547 215.43 324.547 215.549C324.547 215.668 324.499 215.782 324.415 215.867C324.331 215.951 324.217 215.998 324.098 215.998Z" fill="#E6E6E6"/>
<path d="M74.0562 69.064L74.8977 76.8695L74.4028 87.1048L97.0734 84.4114L99.2033 69.064L96.4892 69.0909L74.0562 69.064Z" fill="#FFB6B6"/>
<path d="M93.3398 43.8529L84.8077 37.1171L80.329 36.8567L73.6833 41.1141L72.056 49.416L68.2074 58.7645L73.8522 83.9933C73.8522 83.9933 74.3817 85.8037 72.9943 86.0211C71.6069 86.2386 71.7733 88.9072 71.7733 88.9072C71.7733 88.9072 72.0558 91.2199 70.7086 91.4236C69.3615 91.6273 65.7692 91.6273 68.9126 95.6688C72.056 99.7103 96.9183 84.4246 96.9183 84.4246L100.529 65.477C100.529 65.477 107.533 56.071 99.9907 50.684L93.3398 43.8529Z" fill="#2CA2D8"/>
<path d="M56.0937 101.134C55.7178 100.665 55.4492 100.119 55.3071 99.5349C55.1649 98.9508 55.1525 98.3426 55.2708 97.7532C55.3892 97.1638 55.6353 96.6074 55.9918 96.1234C56.3484 95.6394 56.8068 95.2395 57.3346 94.9518L68.0666 58.9353L74.7773 62.3138L63.0899 96.8352C63.5145 97.754 63.5872 98.7967 63.2944 99.7655C63.0016 100.734 62.3636 101.562 61.5012 102.092C60.6388 102.622 59.612 102.817 58.6154 102.641C57.6188 102.464 56.7215 101.928 56.0937 101.134Z" fill="#C78F8F"/>
<path d="M75.2247 40.7809C75.2247 40.7809 73.3064 39.7614 71.9942 44.1731C70.9438 47.705 62.42 68.7423 62.3113 73.8571C61.6099 74.0057 60.9778 74.3835 60.5147 74.9309C60.0516 75.4784 59.7837 76.1644 59.7534 76.8808L70.2922 78.293C72.1338 76.7398 72.6169 74.6419 71.9044 74.0193L74.1926 67.7697L83.7389 47.8858L76.6244 41.4932L75.2247 40.7809Z" fill="#2CA2D8"/>
<path d="M131.537 89.2955C131.673 88.7099 131.679 88.1016 131.555 87.5134C131.43 86.9253 131.179 86.3715 130.817 85.8912C130.455 85.4109 129.993 85.0158 129.462 84.7335C128.931 84.4513 128.345 84.2889 127.745 84.2578L103.126 56.1409L97.9033 62.3723L123.37 88.4448C123.384 89.4569 123.77 90.4285 124.453 91.1755C125.136 91.9225 126.069 92.393 127.076 92.4978C128.082 92.6027 129.093 92.3346 129.915 91.7444C130.737 91.1542 131.314 90.2828 131.537 89.2955Z" fill="#C78F8F"/>
<path d="M88.188 43.1505C88.188 43.1505 89.4768 41.4017 92.5676 44.8121C95.0421 47.5423 111.825 62.8249 114.135 67.3896C114.832 67.2203 115.565 67.2876 116.219 67.581C116.874 67.8743 117.412 68.377 117.749 69.0098L108.857 74.8407C106.525 74.2365 105.182 72.5539 105.555 71.6844L100.79 67.0389L83.5835 53.2385L87.234 44.398L88.188 43.1505Z" fill="#2CA2D8"/>
<path d="M206.736 101.988C206.026 101.743 205.439 101.23 205.101 100.558C204.763 99.8867 204.7 99.1098 204.926 98.3927C204.974 98.2477 205.035 98.1069 205.106 97.9718L198.307 90.5448L200.861 85.7687L209.076 96.9497C209.613 97.2895 210.023 97.7975 210.241 98.3945C210.459 98.9916 210.474 99.6441 210.282 100.25C210.17 100.594 209.991 100.912 209.755 101.187C209.52 101.462 209.233 101.687 208.91 101.851C208.587 102.015 208.236 102.113 207.875 102.141C207.515 102.169 207.152 102.125 206.808 102.013C206.784 102.005 206.76 101.997 206.736 101.988Z" fill="#FFB6B6"/>
<path d="M163.145 45.5766C162.92 46.6253 162.896 47.7071 163.074 48.7647C163.121 49.064 163.186 49.3602 163.269 49.6517C163.573 50.7413 163.862 51.7453 164.142 52.6512C164.306 53.2139 164.474 53.744 164.636 54.2361C165.566 57.109 166.293 58.7356 166.808 59.0779C167.058 59.2453 167.308 59.3986 167.551 59.5483C168.798 60.311 169.701 60.8637 169.097 62.2713C169.009 62.4724 168.905 62.6659 168.785 62.8498C168.585 63.159 168.364 63.4541 168.123 63.7329C167.986 63.8906 167.86 64.0571 167.744 64.2314C167.594 64.4541 167.529 64.6416 167.61 64.8115C167.712 65.0204 167.995 65.1244 168.603 65.1537C168.7 65.158 168.81 65.1639 168.929 65.1636C168.967 65.1661 169.007 65.1644 169.052 65.1648C169.13 65.1659 169.219 65.1666 169.309 65.1632C170.06 65.1488 171.03 65.5443 172.067 66.1482C175.129 67.9316 178.737 71.5212 178.781 71.5659L201.31 94.6018L201.749 94.3078L202.791 93.6073L203.152 93.3666L203.564 93.0899L205.355 91.8908L206.261 91.2857L200.45 80.6168L199.817 79.4571L199.275 78.4564L188.182 58.0835L183.775 51.0795L182.792 49.519L178.601 42.8645C178.01 41.9229 177.238 41.1071 176.331 40.4636C175.424 39.8201 174.399 39.3615 173.315 39.1141C172.231 38.8667 171.109 38.8352 170.012 39.0216C168.916 39.2079 167.867 39.6083 166.926 40.2C166.862 40.2399 166.799 40.2806 166.737 40.3222C164.903 41.5416 163.615 43.4256 163.145 45.5766Z" fill="#2CA2D8"/>
<path d="M164.64 206.555L160.513 206.52L158.686 190.229L164.777 190.28L164.64 206.555Z" fill="#FFB6B6"/>
<path d="M165.736 204.651L164.658 204.58L160.262 204.279L158.847 204.185L158.82 207.135L152.228 211.607C151.902 211.829 151.656 212.148 151.525 212.519C151.394 212.89 151.385 213.294 151.499 213.67C151.613 214.047 151.845 214.377 152.16 214.613C152.476 214.848 152.858 214.977 153.252 214.98L161.456 215.047L162.893 212.137L163.418 215.065L166.517 215.092L165.736 204.651Z" fill="#2F2E41"/>
<path d="M208.096 203.539L204.151 204.752L197.492 189.773L203.315 187.983L208.096 203.539Z" fill="#FFB6B6"/>
<path d="M208.566 201.396L207.515 201.652L203.236 202.689L201.857 203.026L202.724 205.85L197.789 212.101C197.545 212.41 197.406 212.789 197.393 213.182C197.379 213.575 197.492 213.963 197.714 214.287C197.936 214.612 198.256 214.858 198.627 214.988C198.999 215.118 199.402 215.126 199.778 215.011L207.623 212.6L208.112 209.389L209.5 212.02L212.46 211.109L208.566 201.396Z" fill="#2F2E41"/>
<path d="M156.339 69.5688L148.462 92.459L148.202 94.2907C146.218 96.1751 148.711 96.7959 147.776 97.2928C146.841 97.7898 146.212 99.1828 147.472 99.4317C148.732 99.6807 152.794 188.961 158.151 192.428C163.509 195.895 166.769 198.402 165.785 193.326C165.389 191.281 165.949 180.316 166.76 167.951C166.852 166.55 168.304 165.066 167.045 163.704C165.785 162.341 167.2 161.445 167.279 160.314C168.409 144.167 169.714 128.226 169.714 128.226C169.714 128.226 178.064 156.902 180.232 154.682C182.4 152.462 181.542 157.927 182.204 159.561C182.758 160.925 180.396 163.606 183.868 163.647C187.34 163.688 195.494 191.561 196.321 191.53C197.96 191.467 202.566 191.644 205.302 191.081C206.653 190.803 200.656 169.7 195.649 151.477C195.25 150.024 193.076 149.99 194.474 147.185C195.872 144.379 188.917 126.225 189.514 125.386C191.098 123.157 191.701 122.189 190.139 122.043C188.577 121.897 188.115 122.754 188.031 120.592C187.947 118.43 187.677 113.099 187.677 113.099C187.677 113.099 186.545 92.0166 178.621 80.3686L177.946 73.4479L156.339 69.5688Z" fill="#2F2E41"/>
<path d="M176.016 25.8658L165.57 27.3531L164.94 34.9166L159.786 42.9795C159.786 42.9795 148.329 51.0423 156.319 63.779C153.278 74.7508 150.255 85.2732 147.373 92.2884C145.128 106.209 165.242 107.543 188.237 102.617C188.237 102.617 187.92 96.6644 185.833 93.8028C183.746 90.9412 184.882 90.3164 184.882 90.3164L183.424 84.9704C184.249 77.2428 181.463 76.5493 180.154 72.979L184.129 35.9343L176.016 25.8658Z" fill="#2CA2D8"/>
<path d="M125.872 90.6161C125.983 89.8724 126.38 89.2013 126.978 88.7455C127.575 88.2897 128.328 88.0853 129.074 88.1756C129.226 88.1964 129.375 88.2296 129.521 88.275L135.571 80.2262L140.736 81.8594L131.255 91.9892C131.02 92.5798 130.596 93.0759 130.049 93.4001C129.502 93.7244 128.864 93.8585 128.233 93.7815C127.508 93.6861 126.852 93.3069 126.407 92.7273C125.962 92.1478 125.766 91.4152 125.861 90.691C125.865 90.6659 125.868 90.641 125.872 90.6161Z" fill="#FFB6B6"/>
<path d="M179.615 40.5034C179.467 40.3192 179.305 40.1396 179.135 39.9644C177.948 38.742 176.421 37.9062 174.752 37.5665C173.083 37.2268 171.35 37.399 169.781 38.0605C169.628 38.1232 169.475 38.1951 169.327 38.2671C163.961 40.9029 161.065 42.6588 160.714 43.4806C160.593 43.759 160.49 44.0329 160.386 44.2978C160.288 44.5582 160.193 44.8051 160.095 45.0297C159.681 45.9907 159.205 46.588 157.993 46.3185C157.591 46.2202 157.203 46.0708 156.839 45.8741C156.673 45.7932 156.52 45.7079 156.376 45.6269C155.856 45.3397 155.478 45.1332 155.222 45.3217C154.975 45.5057 154.966 45.9727 155.191 47.055C155.265 47.5067 155.253 47.9684 155.155 48.4156C154.858 49.72 154.393 50.9804 153.772 52.1652C152.841 54.0225 151.794 55.8193 150.637 57.5449L139.954 72.7769L139.231 73.8052L138.441 74.9325L132.136 83.9226L132.509 84.3041L134.072 85.8984L134.417 86.2532L134.732 86.5764L135.545 87.4072L136.308 88.184L153.341 74.3082L155.24 72.7589L158.644 69.9839L165.618 64.3034L178.816 52.0889C179.649 51.324 180.319 50.3988 180.786 49.3686C181.252 48.3385 181.506 47.2247 181.532 46.094C181.532 46.0177 181.537 45.9458 181.537 45.8695C181.542 43.9113 180.862 42.0131 179.615 40.5034Z" fill="#2CA2D8"/>
<path d="M169.746 25.5907C176.192 25.5907 181.417 20.365 181.417 13.9189C181.417 7.47271 176.192 2.24707 169.746 2.24707C163.299 2.24707 158.074 7.47271 158.074 13.9189C158.074 20.365 163.299 25.5907 169.746 25.5907Z" fill="#FFB6B6"/>
<path d="M185.213 30.1034C186.779 32.3453 187.827 34.9077 188.281 37.6049C187.018 38.4125 185.549 38.8367 184.05 38.826C183.999 38.6298 183.948 38.4335 183.89 38.2373C183.456 36.7175 182.81 35.2665 181.971 33.9268C182.086 35.3714 181.89 36.8239 181.397 38.1864C180.605 37.8265 179.756 37.6076 178.889 37.5395C178.183 37.5394 177.486 37.7037 176.854 38.0192C176.12 35.5841 175.444 33.3453 174.964 31.7389C174.949 35.7659 169.047 39.2767 162.607 38.7679C162.374 38.6225 164.708 32.0006 164.482 31.8479C163.966 31.5063 163.465 31.1356 162.963 30.7721C165.071 27.5156 167.361 24.0266 166.968 23.5033C166.997 24.1502 164.686 27.2613 162.171 30.1979C160.775 29.173 168.705 12.4981 164.787 11.1461C164.722 11.7349 163.857 11.7349 162.803 11.6114C162.525 10.6399 162.112 9.71248 161.575 8.85644C161.644 9.71876 161.541 10.5863 161.269 11.4078C160.229 11.4081 159.191 11.5177 158.173 11.7349C157.937 11.3644 157.677 11.0098 157.395 10.6737C157.423 11.0833 157.411 11.4948 157.359 11.9021C156.319 12.1274 155.461 12.3891 155.338 12.5999C154.524 12.3019 155.912 10.9572 155.403 10.2593C154.11 8.51483 156.029 5.97072 157.242 4.16801C159.736 0.475438 165.209 -0.803893 169.083 1.4131C169.258 0.809773 170.152 0.410001 171.3 0.141053C171.787 0.0337651 172.285 -0.0126328 172.783 0.00293572C177.726 0.0901559 184.588 4.168 184.857 9.1036C184.879 9.59787 184.915 10.1358 184.951 10.71C185.3 16.2344 184.872 21.3299 188.644 25.3714C190.011 26.8324 190.025 33.7524 189.502 37.3141C188.142 35.8822 187.176 30.3142 185.213 30.1034Z" fill="#2F2E41"/>
<path d="M72.5745 18.7721C71.5493 21.3255 68.6569 26.3469 68.2651 29.0861L68.4415 28.9127C68.7778 29.4873 69.1601 30.0338 69.5844 30.5469C70.3451 29.7481 71.2637 29.1164 72.2819 28.6922C71.7259 29.833 71.4039 31.0735 71.3348 32.3407C72.4264 35.7622 77.4726 34.2385 80.4291 33.8649C83.3816 37.2422 87.3097 38.1234 92.4536 36.1818C93.8922 36.3299 95.5027 36.4198 96.5108 35.5697C97.5188 34.7197 96.9185 33.1454 97.4609 31.9547C101.324 23.4734 97.7589 20.4134 94.7296 16.5677C94.063 15.7214 94.0658 14.4584 93.2546 13.651C92.1291 12.5317 90.4039 12.1874 88.8132 11.9117C89.2264 11.9334 89.6383 11.8485 90.0091 11.665C90.38 11.4814 90.6973 11.2055 90.9307 10.8638C91.1354 10.5196 91.241 10.1255 91.2359 9.72497C91.2308 9.32448 91.1152 8.93318 90.9019 8.59422C90.333 7.6511 89.1509 7.10266 88.0104 6.96566C86.8869 6.88936 85.7582 6.98638 84.6642 7.25331C83.9555 7.34652 83.2692 7.56588 82.6378 7.901C82.3399 8.05993 82.0976 8.30602 81.9434 8.60636C81.7891 8.9067 81.7302 9.24698 81.7745 9.5817C81.8695 9.89081 82.0331 10.1745 82.253 10.4115C82.473 10.6486 82.7436 10.833 83.0448 10.9508C83.5039 11.145 83.9868 11.2772 84.4808 11.344C82.2118 11.0495 79.9069 11.4529 77.8728 12.5006C75.3235 13.8604 73.6033 16.2201 72.5745 18.7721Z" fill="#2F2E41"/>
<path d="M86.3772 33.0871C91.41 33.0871 95.4898 29.0073 95.4898 23.9745C95.4898 18.9418 91.41 14.8619 86.3772 14.8619C81.3445 14.8619 77.2646 18.9418 77.2646 23.9745C77.2646 29.0073 81.3445 33.0871 86.3772 33.0871Z" fill="#C78F8F"/>
<path d="M77.6086 19.0886C78.1369 20.6855 79.6468 21.2 81.0424 21.521C81.4824 21.6235 81.9252 21.7191 82.372 21.8041C82.5368 21.598 82.7122 21.396 82.8953 21.2051C83.6559 20.4063 84.5746 19.7746 85.5927 19.3504C85.1524 20.2515 84.8598 21.2175 84.7261 22.2115C85.5697 22.3339 86.4181 22.4339 87.2711 22.5116C87.9928 22.6652 88.7459 22.5356 89.3749 22.1498C90.0038 21.7639 90.4604 21.1511 90.6504 20.4381C91.427 21.708 92.3452 22.9039 93.6008 23.4083C94.3189 23.6663 95.1007 23.6876 95.8316 23.4689C96.5626 23.2502 97.2043 22.8031 97.6627 22.1932C98.3867 21.1982 98.8887 20.0594 99.1348 18.8537C99.4911 17.4396 99.689 15.8107 98.9894 14.9135C98.4289 14.1874 97.4621 14.1743 96.5699 14.2388C94.6009 14.3898 92.6526 14.743 90.7559 15.2928L90.5953 15.6539C90.9213 13.6956 90.2142 11.8115 88.906 11.1415C88.0236 10.6935 86.962 10.7686 85.9305 10.8595C84.6056 10.9186 83.2964 11.1717 82.045 11.6109C80.6093 12.1631 79.3794 13.1455 78.5234 14.4235C77.6078 15.8137 77.1528 17.7096 77.6086 19.0886Z" fill="#2F2E41"/>
<path d="M90.5999 10.5716C90.51 10.545 90.743 10.5791 90.6622 10.5813C90.7023 10.579 90.7422 10.5734 90.7814 10.5646C90.7881 10.5632 90.8788 10.5343 90.8186 10.5556C90.9539 10.5151 91.0746 10.4363 91.1662 10.3287C91.3802 10.064 91.5481 9.76515 91.6629 9.44465C91.8077 9.02111 92.0405 8.63299 92.3459 8.30575C92.4326 8.21869 92.5386 8.15329 92.6553 8.11487C92.772 8.07646 92.8961 8.06609 93.0176 8.08463C93.139 8.10317 93.2544 8.15009 93.3543 8.22158C93.4542 8.29306 93.5359 8.3871 93.5927 8.49605C93.7079 8.91642 93.6684 9.36419 93.4814 9.7579C93.3508 10.1585 93.1564 10.5355 92.9057 10.8742C92.4857 11.428 91.9136 11.8478 91.2592 12.0822C90.5018 12.3573 89.6758 12.3809 88.9038 12.1495C88.8018 12.1072 88.7144 12.0361 88.652 11.945C88.5897 11.8538 88.5553 11.7465 88.5529 11.6361C88.5505 11.5257 88.5802 11.417 88.6385 11.3232C88.6968 11.2295 88.7811 11.1547 88.8811 11.1079L90.1686 10.581C90.2363 10.5509 90.3093 10.5344 90.3833 10.5325C90.4574 10.5307 90.5312 10.5434 90.6003 10.5701C90.6695 10.5967 90.7327 10.6367 90.7864 10.6878C90.84 10.7389 90.8831 10.8001 90.9131 10.8679C90.9431 10.9357 90.9595 11.0087 90.9612 11.0828C90.963 11.1568 90.9501 11.2305 90.9234 11.2997C90.8966 11.3688 90.8565 11.4319 90.8053 11.4855C90.7542 11.5391 90.6929 11.5821 90.6251 11.612L90.6227 11.6131L89.3353 12.1401L89.3125 11.0985C89.4731 11.1449 89.6384 11.1732 89.8053 11.1828C89.9834 11.2006 90.1632 11.1931 90.3391 11.1603C90.5077 11.1382 90.6733 11.0978 90.8331 11.0398C90.9354 11.0025 91.0358 10.9599 91.1338 10.9124C91.1694 10.8951 91.2047 10.8771 91.2396 10.8585C91.2371 10.8599 91.3869 10.7727 91.3212 10.8136C91.4877 10.7072 91.6439 10.5855 91.7879 10.4501C91.8387 10.4021 91.8855 10.35 91.9278 10.2944C92.0012 10.2043 92.0692 10.11 92.1315 10.0119C92.2583 9.80431 92.3588 9.58171 92.4306 9.34925C92.4633 9.25156 92.4909 9.15223 92.5133 9.05166C92.5195 8.99646 92.5295 8.94174 92.5432 8.8879C92.591 8.75961 92.5341 8.96281 92.5891 9.0184L92.8264 9.19328C92.871 9.20656 92.918 9.20963 92.9639 9.20228C93.0098 9.19493 93.0535 9.17734 93.0916 9.15081C93.1198 9.11125 93.1136 9.11781 93.0732 9.1705C93.0262 9.23251 92.9832 9.29744 92.9444 9.3649C92.8593 9.52371 92.7824 9.68673 92.7139 9.85335C92.5722 10.2077 92.3932 10.5459 92.1797 10.8622C91.9705 11.1822 91.6657 11.4279 91.3086 11.5644C90.9516 11.7009 90.5606 11.7213 90.1913 11.6225C90.0527 11.5673 89.9414 11.4599 89.8813 11.3234C89.8212 11.1868 89.8172 11.0321 89.8702 10.8927C89.9268 10.7553 90.0344 10.6451 90.1704 10.5852C90.3064 10.5254 90.4604 10.5205 90.5999 10.5716Z" fill="#2F2E41"/>
</g>
<defs>
<clipPath id="clip0_154_171">
<rect width="324.547" height="216" fill="white"/>
</clipPath>
</defs>
</svg>
