<svg width="332" height="309" viewBox="0 0 332 309" fill="none" xmlns="http://www.w3.org/2000/svg">
<g clip-path="url(#clip0_154_2)">
<path d="M319.38 37.0349H322.671C325.193 17.6756 305.791 2.97438 283.537 1.17966C292.277 3.18479 300.275 7.61187 306.614 13.9535C312.953 20.295 317.378 28.2945 319.38 37.0349Z" fill="#F2F2F2"/>
<path d="M268.158 94.7951C266.296 94.7723 264.511 94.7095 262.805 94.6065C264.576 94.8795 266.373 94.9428 268.158 94.7951Z" fill="#F2F2F2"/>
<path d="M226.74 47.5615C227.17 22.0613 247.489 1.30872 272.993 1.30872C276.496 0.9368 280.026 0.893593 283.537 1.17966C276.572 -0.400707 269.342 -0.393091 262.381 1.20194C255.42 2.79698 248.908 5.93851 243.327 10.3936C237.746 14.8486 233.239 20.5029 230.141 26.9371C227.044 33.3713 225.434 40.4204 225.432 47.5615C225.432 71.7412 226.297 92.3703 262.804 94.6066C244.308 91.7974 226.403 67.5849 226.74 47.5615Z" fill="#F2F2F2"/>
<path d="M318.834 48.3064C310.473 62.6089 277.602 73.0981 272.994 93.8149C271.426 94.3296 269.803 94.6586 268.158 94.7951C269.673 94.8136 271.236 94.8076 272.86 94.7703C298.836 94.7703 320.143 74.1833 320.546 48.3065L318.834 48.3064Z" fill="#F2F2F2"/>
<path d="M276.727 82.318C270.647 69.13 267.985 54.9169 269.85 39.3458C269.562 37.5344 270.571 35.7191 272.107 35.288L299.63 27.5986C301.166 27.1716 302.645 28.2914 302.937 30.1019L309.814 73.0741C310.102 74.8856 309.092 76.7009 307.557 77.1319L280.034 84.8213C278.498 85.2483 277.018 84.1285 276.727 82.318Z" fill="#F2F2F2"/>
<path d="M289.762 32.3525C290.159 29.2822 288.403 26.5248 285.84 26.1937C283.277 25.8626 280.878 28.0831 280.481 31.1533C280.085 34.2236 281.841 36.9809 284.404 37.3121C286.966 37.6432 289.365 35.4227 289.762 32.3525Z" fill="#F2F2F2"/>
<path d="M239.431 61.3035C233.351 48.1155 230.689 33.9024 232.554 18.3313C232.266 16.5198 233.276 14.7046 234.811 14.2734L262.334 6.58406C263.87 6.15704 265.349 7.27689 265.641 9.08736L272.518 52.0596C272.806 53.871 271.796 55.6863 270.261 56.1174L242.738 63.8068C241.202 64.2338 239.722 63.114 239.431 61.3035Z" fill="#F2F2F2"/>
<path d="M252.467 11.3379C252.863 8.26766 251.107 5.51029 248.545 5.17916C245.982 4.84803 243.583 7.06854 243.186 10.1388C242.789 13.209 244.545 15.9664 247.108 16.2975C249.671 16.6286 252.07 14.4082 252.467 11.3379Z" fill="#F2F2F2"/>
<path d="M277.102 204.076H0V204.978H277.102V204.076Z" fill="#2D6696"/>
<path d="M112.715 97.6733C112.388 96.5292 116.958 107.015 115.871 107.141C110.92 107.709 99.9475 110.27 96.4987 111.65C96.3434 111.632 96.1881 111.614 96.0374 111.591C95.6674 111.551 95.3065 111.492 94.9502 111.425C86.9197 109.905 80.8444 103.309 80.68 95.3469C80.6708 95.2341 80.6708 95.1169 80.6708 95.0042C80.6697 94.4545 80.6987 93.9051 80.7576 93.3586C80.8332 92.6122 80.963 91.8724 81.1459 91.1448L81.1276 91.1404C77.93 88.1376 79.2776 82.5695 83.3522 80.2205C85.1227 79.2025 87.0861 78.5652 89.1169 78.3494C89.6676 78.2897 90.2212 78.2596 90.7751 78.2593H95.978C97.0546 78.0273 98.1459 77.8691 99.2441 77.7859H99.2532C109.728 76.9878 117.986 83.372 117.214 91.1404C117.21 91.1494 117.201 91.1584 117.196 91.1674C116.972 91.501 116.776 91.8166 116.602 92.1187C116.433 92.4028 116.292 92.6733 116.168 92.9303C115.214 94.9141 117.668 97.4103 116.04 97.8762C113.876 98.4959 121.732 118.864 113.166 118.864C117.333 120.048 113.617 100.829 112.715 97.6733Z" fill="#2F2E41"/>
<path d="M160.509 294.546L167.265 294.489L170.255 267.826L160.285 267.91L160.509 294.546Z" fill="#FFB6B6"/>
<path d="M182.148 305.288C182.154 306.089 181.842 306.86 181.281 307.431C180.719 308.002 179.954 308.327 179.153 308.335L165.723 308.447L163.371 303.681L162.508 308.471L157.44 308.517L158.72 291.432L160.483 291.315L167.674 290.819L169.995 290.664L170.035 295.498L180.824 302.816C181.229 303.09 181.56 303.458 181.791 303.889C182.021 304.32 182.144 304.8 182.148 305.288Z" fill="#2F2E41"/>
<path d="M169.073 281.174C166.386 280.849 159.605 280.272 159.605 280.272C159.605 280.272 156.404 273.59 156.922 271.512C157.432 269.424 158.703 269 157.522 267.909C154.645 257.278 155.105 240.01 155.105 240.01C155.105 240.01 139.623 232.512 123.946 223.833C108.621 215.343 93.1117 205.727 91.7096 200.88C90.7841 197.413 90.1626 193.873 89.852 190.298C89.6176 187.954 89.4733 185.654 89.3831 183.594C89.1712 178.878 89.2569 175.393 89.2569 175.393L108.793 175.068L121.732 174.77H123.085V177.025L126.484 182.805C126.484 182.805 132.359 189.635 131.669 190.271C130.835 191.042 131.088 191.727 134.05 192.286C134.892 192.434 135.75 192.469 136.602 192.39C141.385 192.025 143.387 194.762 143.504 195.361C144.307 199.595 152.355 208.792 159.893 216.642H159.898C166.855 223.892 173.374 229.987 173.374 229.987L173.744 237.765L175.479 274.127C175.479 274.127 172.224 272.305 175.132 276.232C178.04 280.164 171.76 281.494 169.073 281.174Z" fill="#2F2E41"/>
<path d="M242.365 196.624L245.123 190.456L222.119 176.647L218.048 185.749L242.365 196.624Z" fill="#FFB6B6"/>
<path d="M261.133 181.413C261.864 181.741 262.435 182.345 262.721 183.093C263.007 183.841 262.984 184.672 262.658 185.404L257.174 197.664L251.862 197.82L255.859 200.598L253.793 205.226L238.788 196.956L239.415 195.304L241.955 188.558L242.779 186.383L247.192 188.356L258.334 181.589C258.752 181.335 259.225 181.187 259.712 181.156C260.2 181.126 260.687 181.214 261.133 181.413Z" fill="#2F2E41"/>
<path d="M230.532 181.696C230.516 181.731 230.498 181.763 230.482 181.792C229.225 184.099 227.162 189.436 227.034 189.766C227.03 189.772 227.028 189.778 227.027 189.785C227.027 189.785 220.222 189.434 218.482 188.186C216.74 186.929 219.376 188.917 215.358 186.288C213.28 184.921 206.163 182.787 199.788 181.043C193.857 179.421 188.572 178.146 188.572 178.146C188.572 178.146 183.901 182.397 177.133 188.273L177.13 188.276C170.843 193.721 162.742 200.568 154.892 206.7C138.085 211.643 120.345 215.927 115.911 213.52C112.794 211.744 109.837 209.699 107.075 207.409L111.641 195.44L123.718 182.793L136.43 177.627L141.403 175.605L148.366 172.779L186.068 157.462L227.819 171.923C227.819 171.923 224.911 174.273 229.643 173.033C234.312 171.813 231.845 179.223 230.532 181.696Z" fill="#2F2E41"/>
<path d="M98.7386 112.101H112.264L114.394 116.801L123.452 120.837C124.63 121.363 125.668 122.158 126.483 123.159C127.297 124.16 127.864 125.337 128.14 126.598C131.402 141.508 127.276 144.606 127.143 149.522C126.692 166.204 124.369 169.522 124.629 173.64C124.707 174.873 125.459 179.746 127.879 179.287C130.299 178.828 128.994 180.755 129.567 181.504C130.062 182.151 132.665 181.292 131.031 183.442C129.397 185.591 136.382 191.452 132.102 191.452C123.987 191.452 107.756 195.51 101.444 195.51C95.1318 195.51 90.254 197.382 87.4672 197.314C85.7686 197.272 86.2997 189.352 86.9786 182.493C87.1323 180.94 90.1146 180.98 87.4383 178.101C84.762 175.221 87.9123 173.725 87.918 172.967C87.924 172.162 89.4352 170.134 87.5495 166.816C85.6637 163.499 87.402 164.872 87.3201 163.83C86.6889 155.802 85.7844 145.567 85.7844 145.567L81.7972 134.345C80.778 131.477 80.9128 128.325 82.173 125.554C83.4333 122.783 85.7204 120.61 88.5522 119.493L93.2292 117.648L98.7386 112.101Z" fill="#2CA2D8"/>
<path d="M193.733 107.962C193.432 108.522 193.013 109.011 192.505 109.394C191.997 109.777 191.412 110.045 190.79 110.18C190.168 110.314 189.524 110.312 188.904 110.174C188.283 110.035 187.699 109.763 187.194 109.377L168.14 120.164L163.86 115.627L186.585 102.981C187.298 102.178 188.281 101.665 189.348 101.539C190.414 101.413 191.49 101.682 192.371 102.296C193.252 102.91 193.877 103.826 194.128 104.87C194.379 105.914 194.238 107.014 193.733 107.962Z" fill="#FFB6B6"/>
<path d="M107.942 133.424L107.652 136.898L145.585 136.411L183.343 115.184L177.823 106.688L144.636 120.641L121.049 121.12C117.729 121.187 114.553 122.482 112.132 124.754C109.711 127.027 108.219 130.116 107.942 133.424Z" fill="#2CA2D8"/>
<path d="M103.365 109.624C110.168 109.624 115.683 104.109 115.683 97.3058C115.683 90.5025 110.168 84.9874 103.365 84.9874C96.5616 84.9874 91.0464 90.5025 91.0464 97.3058C91.0464 104.109 96.5616 109.624 103.365 109.624Z" fill="#FFB6B6"/>
<path d="M117.214 91.8121C117.009 91.9203 116.808 92.0195 116.602 92.1187C116.387 92.2224 116.173 92.3261 115.958 92.4208C111.833 94.2918 108.476 94.4992 106.438 91.8121C106.384 90.3982 106.066 89.0068 105.502 87.7093C105.602 89.1593 105.219 90.6017 104.415 91.8121H100.313C96.0873 94.6165 93.9176 94.9095 96.8502 104.116C97.6679 106.681 100.919 121.609 99.64 123.823C99.27 123.783 95.3062 111.492 94.9499 111.425C86.9195 109.905 80.8441 103.309 80.6797 95.3468C80.6888 94.9411 80.7162 94.5353 80.7573 94.1385C81.2864 93.3433 81.8678 92.5842 82.4977 91.8662C82.4945 89.7379 82.9839 87.6377 83.9275 85.73C85.1212 83.3131 86.9822 81.2885 89.2902 79.8959C90.666 79.2288 92.1003 78.69 93.575 78.2863C93.6115 78.2773 93.6435 78.2682 93.68 78.2592C94.1322 78.1375 94.5936 78.0248 95.055 77.9301C96.0081 77.7289 96.972 77.5828 97.9419 77.4928C98.0105 77.4883 98.079 77.4837 98.1429 77.4837C98.5302 77.4847 98.9103 77.5889 99.2438 77.7858C99.2484 77.7858 99.2484 77.7903 99.2529 77.7903C99.4913 77.9296 99.6994 78.1151 99.865 78.3359C100.157 78.7074 100.315 79.1665 100.313 79.6389H104.881C105.05 79.6389 105.219 79.6434 105.388 79.6524C108.436 79.7566 111.336 80.9947 113.52 83.1244C115.704 85.2542 117.015 88.1222 117.196 91.1674C117.21 91.3838 117.214 91.5957 117.214 91.8121Z" fill="#2F2E41"/>
<path d="M86.5652 94.0664C91.0473 94.0664 94.6807 90.433 94.6807 85.9509C94.6807 81.4689 91.0473 77.8354 86.5652 77.8354C82.0831 77.8354 78.4497 81.4689 78.4497 85.9509C78.4497 90.433 82.0831 94.0664 86.5652 94.0664Z" fill="#2F2E41"/>
<path d="M96.4839 79.6389C96.6389 84.1182 92.8505 87.7544 88.3684 87.7544C86.2161 87.7544 84.1518 86.8993 82.6299 85.3774C81.1079 83.8554 80.2529 81.7912 80.2529 79.6389C80.2529 75.1568 85.681 75.1104 88.3684 71.5234C92.1701 66.449 96.2749 73.5981 96.4839 79.6389Z" fill="#2F2E41"/>
<path d="M107.095 206.593C105.835 187.894 109.524 170.305 119.77 154.187C120.027 153.126 120.695 152.211 121.626 151.643C122.558 151.074 123.677 150.898 124.738 151.154L164.316 160.725C165.376 160.983 166.291 161.651 166.86 162.582C167.428 163.514 167.604 164.633 167.349 165.694L154.675 218.099C154.417 219.16 153.749 220.075 152.818 220.643C151.886 221.212 150.768 221.388 149.707 221.133L110.129 211.561C109.068 211.303 108.153 210.635 107.585 209.704C107.016 208.773 106.84 207.654 107.095 206.593Z" fill="#F2F2F2"/>
<path opacity="0.2" d="M114.851 210.564C113.791 210.306 112.876 209.638 112.308 208.707C111.739 207.775 111.563 206.657 111.818 205.596C110.558 186.897 114.247 169.308 124.492 153.19C124.665 152.494 125.018 151.857 125.517 151.342L124.738 151.154C123.677 150.898 122.558 151.074 121.626 151.643C120.695 152.211 120.027 153.126 119.769 154.187C109.524 170.305 105.835 187.894 107.095 206.592C106.84 207.653 107.016 208.772 107.585 209.704C108.153 210.635 109.068 211.303 110.129 211.561L149.707 221.133C150.41 221.3 151.145 221.279 151.838 221.071C152.531 220.863 153.156 220.475 153.651 219.947L114.851 210.564Z" fill="black"/>
<path d="M150.685 188.503L124.145 182.162C123.723 182.061 123.359 181.796 123.132 181.426C122.905 181.056 122.834 180.611 122.935 180.189C123.036 179.767 123.3 179.403 123.67 179.175C124.039 178.948 124.484 178.877 124.906 178.977L151.446 185.318C151.867 185.42 152.23 185.685 152.457 186.054C152.683 186.424 152.753 186.868 152.653 187.289C152.552 187.711 152.288 188.075 151.92 188.302C151.551 188.53 151.107 188.602 150.685 188.503Z" fill="white"/>
<path d="M132.071 174.824L126.232 173.429C125.81 173.329 125.445 173.066 125.217 172.696C124.989 172.327 124.917 171.883 125.016 171.461C125.116 171.038 125.379 170.673 125.748 170.444C126.116 170.216 126.561 170.143 126.983 170.242L126.993 170.244L132.832 171.639C133.253 171.741 133.616 172.006 133.843 172.376C134.069 172.745 134.139 173.189 134.038 173.611C133.938 174.032 133.674 174.396 133.305 174.624C132.937 174.851 132.493 174.923 132.071 174.824Z" fill="white"/>
<path d="M147.341 202.504L120.801 196.163C120.38 196.061 120.016 195.796 119.79 195.427C119.563 195.057 119.493 194.613 119.594 194.191C119.694 193.77 119.958 193.405 120.327 193.178C120.696 192.951 121.14 192.879 121.562 192.978L148.101 199.319C148.311 199.368 148.509 199.458 148.684 199.583C148.858 199.709 149.007 199.868 149.12 200.051C149.234 200.234 149.31 200.437 149.344 200.649C149.379 200.862 149.371 201.079 149.322 201.289C149.273 201.498 149.183 201.696 149.057 201.87C148.931 202.045 148.772 202.193 148.589 202.306C148.406 202.419 148.202 202.495 147.99 202.529C147.777 202.564 147.56 202.556 147.351 202.506L147.341 202.504Z" fill="white"/>
<path d="M149.013 195.503L122.473 189.162C122.051 189.062 121.685 188.798 121.458 188.428C121.23 188.059 121.158 187.613 121.259 187.191C121.359 186.769 121.623 186.403 121.993 186.176C122.363 185.948 122.808 185.876 123.23 185.977L123.234 185.978L149.774 192.318C150.195 192.42 150.558 192.685 150.785 193.055C151.011 193.424 151.081 193.869 150.981 194.29C150.88 194.712 150.616 195.076 150.248 195.303C149.879 195.531 149.435 195.603 149.013 195.503Z" fill="white"/>
<path d="M143.403 162.619C147.173 162.619 150.229 159.563 150.229 155.792C150.229 152.022 147.173 148.966 143.403 148.966C139.632 148.966 136.576 152.022 136.576 155.792C136.576 159.563 139.632 162.619 143.403 162.619Z" fill="#2D6696"/>
<path d="M108.983 210.501C108.426 210.193 107.942 209.768 107.566 209.255C107.19 208.742 106.929 208.153 106.803 207.53C106.676 206.906 106.686 206.263 106.833 205.644C106.98 205.025 107.259 204.445 107.652 203.944L97.1104 184.753L101.702 180.532L114.055 203.417C114.848 204.141 115.349 205.131 115.461 206.199C115.574 207.267 115.29 208.339 114.665 209.212C114.04 210.085 113.116 210.699 112.069 210.936C111.021 211.174 109.923 211.019 108.983 210.501Z" fill="#FFB6B6"/>
<path d="M96.67 125.552L85.3323 124.458C84.8034 124.407 84.2696 124.467 83.7653 124.635C83.2609 124.802 82.7972 125.073 82.4038 125.43C82.0104 125.788 81.6961 126.223 81.481 126.709C81.2659 127.195 81.1548 127.721 81.1548 128.252V161.991L101.894 200.019L110.461 194.608L96.9349 161.245L96.67 125.552Z" fill="#2CA2D8"/>
<path d="M186.177 122.814C188.806 104.258 196.048 87.8108 209.401 74.1558C209.872 73.1715 210.715 72.4143 211.743 72.0503C212.772 71.6863 213.903 71.7452 214.889 72.2141L251.637 89.7536C252.621 90.2248 253.378 91.0672 253.742 92.0959C254.106 93.1247 254.047 94.2559 253.578 95.2412L230.354 143.9C229.883 144.884 229.04 145.641 228.012 146.005C226.983 146.369 225.852 146.31 224.866 145.841L188.118 128.302C187.134 127.831 186.377 126.988 186.013 125.959C185.649 124.931 185.708 123.8 186.177 122.814Z" fill="#F2F2F2"/>
<path opacity="0.2" d="M192.945 128.302C191.961 127.831 191.204 126.988 190.84 125.959C190.476 124.931 190.535 123.799 191.004 122.814C193.633 104.258 200.875 87.8106 214.228 74.1557C214.541 73.5109 215.018 72.9602 215.612 72.5592L214.889 72.2141C213.903 71.7451 212.772 71.6862 211.743 72.0502C210.715 72.4142 209.872 73.1714 209.401 74.1557C196.048 87.8107 188.806 104.258 186.177 122.814C185.708 123.799 185.649 124.931 186.013 125.959C186.377 126.988 187.134 127.831 188.118 128.302L224.866 145.841C225.52 146.151 226.244 146.282 226.965 146.221C227.685 146.16 228.377 145.91 228.97 145.496L192.945 128.302Z" fill="black"/>
<path d="M232.563 114.117L207.905 102.432C207.513 102.246 207.211 101.912 207.065 101.503C206.919 101.094 206.941 100.643 207.127 100.251C207.313 99.8587 207.647 99.5562 208.056 99.4102C208.465 99.2643 208.915 99.2867 209.308 99.4727L233.966 111.158C234.356 111.345 234.657 111.679 234.802 112.087C234.947 112.496 234.924 112.945 234.739 113.336C234.553 113.728 234.22 114.03 233.812 114.176C233.405 114.322 232.956 114.301 232.563 114.117Z" fill="white"/>
<path d="M217.176 96.8888L211.751 94.3181C211.556 94.2268 211.381 94.0979 211.236 93.939C211.091 93.78 210.979 93.5941 210.906 93.3917C210.833 93.1893 210.8 92.9746 210.81 92.7597C210.82 92.5447 210.873 92.3339 210.964 92.1392C211.056 91.9445 211.185 91.7697 211.344 91.6249C211.503 91.4801 211.689 91.368 211.891 91.2952C212.094 91.2223 212.309 91.1901 212.524 91.2003C212.738 91.2105 212.949 91.2629 213.144 91.3547L213.153 91.3591L218.578 93.9299C218.969 94.1166 219.27 94.4508 219.415 94.8592C219.56 95.2676 219.538 95.7168 219.352 96.1085C219.166 96.5001 218.833 96.8022 218.425 96.9485C218.017 97.0947 217.568 97.0733 217.176 96.8888Z" fill="white"/>
<path d="M226.399 127.125L201.741 115.44C201.35 115.253 201.049 114.919 200.904 114.511C200.759 114.102 200.782 113.653 200.967 113.261C201.153 112.87 201.486 112.568 201.894 112.421C202.302 112.275 202.751 112.297 203.144 112.481L227.802 124.166C227.996 124.258 228.171 124.387 228.316 124.546C228.46 124.705 228.572 124.891 228.645 125.093C228.718 125.295 228.751 125.51 228.741 125.724C228.731 125.939 228.678 126.15 228.587 126.345C228.495 126.539 228.367 126.714 228.208 126.859C228.049 127.003 227.863 127.115 227.66 127.188C227.458 127.261 227.244 127.294 227.029 127.283C226.814 127.273 226.603 127.221 226.409 127.13L226.399 127.125Z" fill="white"/>
<path d="M229.482 120.621L204.824 108.936C204.431 108.75 204.128 108.417 203.982 108.008C203.835 107.599 203.857 107.149 204.043 106.756C204.228 106.364 204.562 106.061 204.971 105.914C205.379 105.768 205.83 105.79 206.222 105.975L206.226 105.977L230.884 117.662C231.275 117.849 231.576 118.183 231.721 118.591C231.866 119 231.843 119.449 231.657 119.84C231.472 120.232 231.139 120.534 230.731 120.68C230.323 120.827 229.874 120.805 229.482 120.621Z" fill="white"/>
<path d="M232.193 87.4344C235.963 87.4344 239.02 84.3781 239.02 80.6079C239.02 76.8377 235.963 73.7814 232.193 73.7814C228.423 73.7814 225.367 76.8377 225.367 80.6079C225.367 84.3781 228.423 87.4344 232.193 87.4344Z" fill="#2D6696"/>
<path d="M291.102 146.853C283.699 130.792 280.457 113.483 282.727 94.5194C282.377 92.3134 283.606 90.1027 285.476 89.5776L318.995 80.2132C320.865 79.6931 322.667 81.0569 323.022 83.2618L331.397 135.595C331.748 137.801 330.518 140.012 328.648 140.537L295.13 149.901C293.259 150.421 291.457 149.058 291.102 146.853Z" fill="#F2F2F2"/>
<path opacity="0.2" d="M298.393 146.881C296.522 147.401 294.72 146.038 294.365 143.833C286.962 127.772 283.72 110.462 285.99 91.4993C285.883 90.7952 285.933 90.076 286.136 89.3933L285.476 89.5776C283.606 90.1026 282.377 92.3133 282.727 94.5193C280.457 113.482 283.699 130.792 291.102 146.853C291.457 149.058 293.259 150.421 295.13 149.901L328.648 140.537C329.287 140.323 329.86 139.95 330.315 139.454C330.771 138.959 331.093 138.355 331.252 137.701L298.393 146.881Z" fill="black"/>
<path d="M318.155 111.074L295.706 117.423C294.962 117.632 294.244 117.091 294.102 116.213C294.021 115.81 294.087 115.391 294.286 115.031C294.485 114.671 294.805 114.393 295.19 114.247L317.639 107.898C318.384 107.69 319.101 108.234 319.241 109.111C319.321 109.514 319.255 109.932 319.057 110.291C318.858 110.65 318.539 110.928 318.155 111.074Z" fill="white"/>
<path d="M299.23 107.317L294.291 108.714C293.547 108.927 292.827 108.389 292.682 107.513C292.6 107.109 292.664 106.689 292.863 106.328C293.061 105.967 293.381 105.687 293.766 105.54L293.775 105.538L298.714 104.141C299.458 103.933 300.175 104.477 300.315 105.354C300.395 105.757 300.33 106.175 300.131 106.534C299.932 106.893 299.613 107.171 299.23 107.317Z" fill="white"/>
<path d="M320.424 125.037L297.975 131.386C297.23 131.594 296.513 131.051 296.373 130.173C296.293 129.77 296.359 129.352 296.557 128.993C296.756 128.634 297.075 128.357 297.458 128.21L319.908 121.861C320.651 121.648 321.372 122.186 321.516 123.062C321.599 123.466 321.535 123.886 321.336 124.247C321.138 124.609 320.818 124.888 320.433 125.035L320.424 125.037Z" fill="white"/>
<path d="M319.29 118.056L296.84 124.405C296.097 124.616 295.377 124.077 295.234 123.2C295.153 122.796 295.217 122.376 295.416 122.015C295.615 121.654 295.936 121.376 296.321 121.229L296.324 121.228L318.774 114.88C319.518 114.672 320.235 115.215 320.375 116.093C320.455 116.496 320.39 116.914 320.191 117.273C319.993 117.632 319.673 117.909 319.29 118.056Z" fill="white"/>
<path d="M306.978 86.0026C307.461 82.2635 305.323 78.9055 302.201 78.5022C299.08 78.099 296.159 80.8032 295.676 84.5422C295.192 88.2813 297.331 91.6394 300.452 92.0426C303.573 92.4459 306.495 89.7417 306.978 86.0026Z" fill="#2D6696"/>
</g>
<defs>
<clipPath id="clip0_154_2">
<rect width="331.457" height="308.517" fill="white"/>
</clipPath>
</defs>
</svg>
