<svg width="592" height="206" viewBox="0 0 592 206" fill="none" xmlns="http://www.w3.org/2000/svg">
<rect width="591.403" height="206" rx="10" fill="#F1F5F9"/>
<path d="M295.889 162.175L217.289 98.3136L139.764 161.302L137.99 158.733L217.289 94.3033L295.514 157.86L373.248 65.5837L373.561 65.4472L451.973 31.1761L453.078 34.1537L374.979 68.2872L295.889 162.175Z" fill="#334155"/>
<path d="M138.877 169.647C143.779 169.647 147.754 165.336 147.754 160.018C147.754 154.7 143.779 150.389 138.877 150.389C133.974 150.389 130 154.7 130 160.018C130 165.336 133.974 169.647 138.877 169.647Z" fill="#22C55E"/>
<path d="M217.289 107.057C222.192 107.057 226.166 102.746 226.166 97.4283C226.166 92.1103 222.192 87.7991 217.289 87.7991C212.386 87.7991 208.412 92.1103 208.412 97.4283C208.412 102.746 212.386 107.057 217.289 107.057Z" fill="#22C55E"/>
<path d="M295.701 169.647C300.604 169.647 304.578 165.336 304.578 160.018C304.578 154.7 300.604 150.389 295.701 150.389C290.799 150.389 286.824 154.7 286.824 160.018C286.824 165.336 290.799 169.647 295.701 169.647Z" fill="#22C55E"/>
<path d="M374.114 76.5651C379.016 76.5651 382.991 72.254 382.991 66.9359C382.991 61.6179 379.016 57.3068 374.114 57.3068C369.211 57.3068 365.237 61.6179 365.237 66.9359C365.237 72.254 369.211 76.5651 374.114 76.5651Z" fill="#22C55E"/>
<path d="M452.526 41.2583C457.428 41.2583 461.403 36.9472 461.403 31.6291C461.403 26.3111 457.428 22 452.526 22C447.623 22 443.649 26.3111 443.649 31.6291C443.649 36.9472 447.623 41.2583 452.526 41.2583Z" fill="#22C55E"/>
</svg>
