<svg width="536" height="536" viewBox="0 0 536 536" fill="none" xmlns="http://www.w3.org/2000/svg">
<mask id="mask0_7_241" style="mask-type:alpha" maskUnits="userSpaceOnUse" x="0" y="0" width="536" height="536">
<path d="M0 0H536V422.463L0 536V0Z" fill="#D9D9D9"/>
</mask>
<g mask="url(#mask0_7_241)">
<path d="M469.149 195.038C469.097 221.56 459.126 247.104 441.195 266.646C423.265 286.189 398.673 298.318 372.253 300.648C345.834 302.978 319.498 295.341 298.424 279.238C277.35 263.135 263.061 239.731 258.368 213.628C253.675 187.524 258.916 160.609 273.061 138.174C287.206 115.739 309.232 99.4064 334.809 92.3878C360.385 85.3691 387.662 88.1719 411.277 100.245C434.892 112.318 453.137 132.788 462.424 157.631C462.655 158.255 462.881 158.879 463.101 159.509V159.515C464.082 162.283 464.945 165.103 465.692 167.975C467.995 176.812 469.157 185.907 469.149 195.038Z" fill="#70C8F1"/>
<path d="M350.504 122.884C345.698 120.285 340.362 118.818 334.903 118.594C329.443 118.371 324.005 119.397 319.003 121.595C314.598 123.512 309.961 126.95 308.491 133.16C314.434 129.653 322.126 135.194 323.655 144.083L323.298 144.181C322.491 150.338 324.294 157.041 327.784 160.859C328.044 159.137 328.684 157.493 329.658 156.049C330.632 154.605 331.915 153.395 333.415 152.509C335.979 150.823 338.817 149.598 340.774 146.7C343.095 143.265 343.684 138.244 344.606 133.663C345.528 129.083 347.277 124.16 350.504 122.884Z" fill="#2DB12D"/>
<path d="M317.24 175.277C315.595 177.749 313.396 179.299 311.424 181.23C309.147 183.302 307.653 186.094 307.194 189.138C306.944 191.289 307.33 193.476 307.277 195.65C307.223 197.825 306.498 200.272 305.019 200.813C302.684 201.657 300.902 197.32 298.501 197.017C296.594 196.779 294.877 199.779 295.43 202.382C295.982 204.984 298.579 206.137 300.07 204.437C301.419 206.701 300.468 210.807 298.442 211.502C298.228 212.928 298.014 214.348 297.806 215.774C292.685 212.191 287.51 208.549 283.155 203.303C278.311 197.517 275.307 190.417 274.528 182.912C273.963 176.881 274.801 169.983 272.033 165.343C269.816 161.63 266.014 160.81 262.592 161.042C261.968 161.083 261.338 161.154 260.714 161.232C262.732 155.17 265.296 149.304 268.372 143.705C269.069 143.406 269.716 143.003 270.291 142.51C273.476 139.807 274.89 134.335 277.475 130.55C277.641 130.307 277.813 130.069 277.992 129.837C280.636 126.385 284.176 124.609 287.599 122.957C295.174 119.279 302.969 115.554 310.966 116.065L308.691 116.285C306.035 123.724 303.377 131.162 300.717 138.601C300.313 139.742 299.905 140.884 299.493 142.029C297.984 146.259 296.428 150.763 296.659 155.498C296.796 158.302 297.77 161.297 299.624 162.26C301.353 163.151 303.242 162.057 304.912 160.976C305.619 160.525 306.32 160.073 307.027 159.616C309.564 157.982 312.374 156.306 315.054 157.399C317.508 158.397 319.32 161.731 319.664 165.325C319.98 168.819 319.128 172.32 317.24 175.277Z" fill="#2DB12D"/>
<path d="M332.329 226.062C324.919 221.5 317.51 216.938 310.1 212.376L310.226 212.052C305.619 213.807 303.707 221.996 304.468 228.693C305.229 235.389 307.811 241.376 309.115 247.901C310.874 256.831 310.21 266.068 307.193 274.655C316.936 263.722 325.558 251.841 332.931 239.188C333.961 237.594 334.746 235.854 335.259 234.026C335.803 232.078 335.609 229.999 334.715 228.185C334.108 227.29 333.288 226.561 332.329 226.062Z" fill="#2DB12D"/>
<path d="M303.086 143.064C302.216 144.932 302.082 147.06 302.711 149.022C303.442 150.603 304.768 151.832 306.401 152.44L310.495 154.469C311.857 155.144 313.325 155.826 314.713 155.271C316.388 154.601 317.549 151.975 317.249 149.538C316.929 146.944 315.294 145.16 313.782 143.641C311.666 141.515 309.55 139.389 307.434 137.262L306.242 138.723C304.952 139.981 303.885 141.449 303.086 143.064Z" fill="#2DB12D"/>
<path d="M447.202 170.791C449.044 171.225 450.886 171.659 452.727 172.092C452.407 178.313 449.323 184.07 445.188 186.156C443.465 187.023 441.546 187.344 440.12 188.966C438.831 190.44 438.177 192.733 437.577 194.925C436.525 198.752 435.474 202.578 434.422 206.404C433.293 210.527 431.843 215.108 428.908 216.593C426.389 217.871 423.508 216.308 421.571 213.688C419.634 211.068 418.452 207.545 417.305 204.111C417.376 207.854 415.635 211.526 413.17 212.827C410.698 214.128 407.692 212.951 406.04 210.046C404.852 207.961 404.359 205.21 403.194 203.095C402.03 200.98 399.588 199.768 398.316 201.752C397.478 203.071 397.585 205.091 397.17 206.766C396.96 207.879 396.409 208.898 395.594 209.683C394.778 210.468 393.738 210.979 392.619 211.145C391.589 211.122 390.575 210.889 389.638 210.461C388.702 210.033 387.862 209.419 387.17 208.656C383.532 204.934 381.163 200.157 380.403 195.008C379.888 192.54 379.953 189.985 380.593 187.546C381.324 185.235 383.088 183.453 384.841 183.892C385.994 181.456 383.718 178.224 381.669 178.509C379.613 178.794 378.003 180.999 376.315 182.692C374.634 184.385 372.281 185.615 370.588 183.934C370.626 184.549 370.418 185.154 370.01 185.615C369.601 186.077 369.027 186.358 368.412 186.395C368.351 186.399 368.29 186.401 368.229 186.399C367.103 186.076 366.057 185.522 365.157 184.772C361.278 182.353 356.352 183.958 353.595 188.532C355.318 181.201 357.843 172.788 363.137 171.065C365.3 170.358 367.659 170.94 369.703 169.716C373.321 167.547 374.052 159.354 370.926 155.974C371.325 159.17 371.247 162.901 369.56 165.088C367.873 167.274 364.332 165.848 364.545 162.616C364.497 163.071 364.307 163.498 364.001 163.838C363.695 164.178 363.289 164.412 362.842 164.507C362.395 164.602 361.929 164.553 361.512 164.367C361.094 164.181 360.746 163.867 360.517 163.472C359.394 161.761 359.489 158.962 360.286 156.918C361.106 155.067 362.283 153.396 363.749 151.999C366.572 148.975 369.435 145.915 372.703 144.014C375.977 142.112 379.755 141.471 383.035 143.36C384.764 144.358 386.285 146.022 388.05 146.901C388.464 147.158 388.926 147.332 389.407 147.411C389.889 147.49 390.381 147.473 390.856 147.362C391.331 147.25 391.78 147.047 392.176 146.762C392.573 146.477 392.909 146.118 393.166 145.703C393.186 145.671 393.206 145.639 393.225 145.606C394.538 143.301 393.92 139.878 394.407 136.997C395.28 131.905 400.372 129.523 403.194 132.885C401.085 132.345 398.905 134.84 398.643 137.864C398.376 140.888 399.903 143.942 401.947 144.857C405.381 146.378 408.743 142.552 411.34 139.011C414.049 135.304 416.762 131.598 419.48 127.895C419.913 127.264 420.4 126.672 420.935 126.124C421.786 125.295 422.921 124.82 424.109 124.795C425.297 124.771 426.45 125.199 427.334 125.993C430.079 128.233 431.368 132.826 433.62 135.987C436.888 140.579 441.778 141.696 446.329 142.588C449.721 143.247 453.116 143.911 456.512 144.578C458.776 148.79 460.751 153.151 462.424 157.631C456.195 160.471 450.912 165.039 447.202 170.791Z" fill="#2DB12D"/>
<path d="M458.17 242.278C455.624 247.447 452.664 252.4 449.317 257.09C447.178 256.175 444.879 257.809 442.877 259.342C440.785 260.946 438.272 262.509 436.127 261.047C433.935 259.55 433.228 255.361 433.923 252.04C434.722 248.976 436.119 246.101 438.034 243.579C439.817 240.917 441.724 238.155 444.202 237.121C446.685 236.087 449.876 237.549 450.6 241.078L452.359 241.018C451.373 239.664 451.89 236.86 453.215 236.366C454.742 235.79 456.067 237.887 456.97 239.741C457.374 240.579 457.784 241.423 458.17 242.278Z" fill="#2DB12D"/>
<path d="M390.815 217.182C387.035 217.42 384.041 212.766 382.051 208.188C380.061 203.61 378.246 198.375 374.835 196.045C372.886 194.713 370.664 194.531 368.55 193.885C367.351 193.583 366.242 192.998 365.314 192.181C364.386 191.364 363.665 190.337 363.213 189.186L360.815 188.218C357.461 189.894 354.39 192.085 351.711 194.709C348.651 197.96 346.745 202.128 346.286 206.569C345.828 211.369 347.52 216.721 350.68 218.524C353.178 219.948 356.085 219.05 358.615 220.354C361.775 221.984 363.652 226.718 364.362 231.391C365.072 236.065 364.892 240.922 365.4 245.649C365.909 250.376 367.309 255.294 370.207 257.717C373.834 260.748 379.157 258.229 380.784 252.711C381.582 250.004 381.555 246.95 382.152 244.141C383.203 239.193 386.04 235.522 388.29 231.463C390.54 227.405 392.312 221.892 390.815 217.182Z" fill="#2DB12D"/>
<path d="M353.462 168.563C353.814 168.887 354.143 169.237 354.446 169.608C354.76 170.148 354.92 170.764 354.909 171.389C354.899 172.014 354.718 172.624 354.386 173.153C354.841 173.127 355.286 173.007 355.693 172.801C356.099 172.594 356.459 172.305 356.748 171.953C357.438 171.167 358.045 170.312 358.559 169.402C358.801 169.09 358.974 168.73 359.066 168.346C359.158 167.963 359.167 167.564 359.093 167.176C358.914 166.667 358.492 166.449 358.196 166.066C357.786 165.317 357.506 164.503 357.368 163.66C357.204 162.869 356.822 162.141 356.267 161.555C355.711 160.97 355.003 160.551 354.223 160.345L354.412 160.382C354.09 160.573 353.835 160.86 353.684 161.204C353.533 161.547 353.494 161.929 353.57 162.296C353.685 163.037 354.162 163.653 354.114 164.409C354.046 165.496 352.959 166.006 352.892 167.094C352.882 167.639 353.086 168.167 353.462 168.563Z" fill="#2DB12D"/>
<path d="M346.985 150.084L347.002 150.081C347.118 149.975 347.225 149.861 347.323 149.738L346.985 150.084Z" fill="#2DB12D"/>
<path d="M348.119 155.189C348.573 154.791 348.909 154.275 349.09 153.699C349.271 153.123 349.29 152.508 349.145 151.921C348.871 150.685 347.899 149.854 347.002 150.082C346.742 150.346 346.419 150.539 346.064 150.643C345.709 150.748 345.333 150.76 344.971 150.68C344.417 150.537 343.809 150.17 343.328 150.587C343.053 150.899 342.86 151.275 342.768 151.68C342.59 152.226 342.412 152.773 342.234 153.319C342.15 153.514 342.128 153.731 342.171 153.94C342.205 154.023 342.26 154.097 342.331 154.153C342.401 154.209 342.485 154.246 342.574 154.26L345.777 155.204C346.145 155.374 346.545 155.46 346.95 155.457C347.354 155.455 347.754 155.363 348.119 155.189Z" fill="#2DB12D"/>
<path d="M428.709 225.653C428.215 224.845 427.722 224.037 427.228 223.23C426.744 222.294 426.081 221.462 425.278 220.78C424.926 220.486 424.472 220.343 424.016 220.383C423.559 220.424 423.137 220.644 422.843 220.995L422.817 221.027L422.877 221.488C424.198 222.905 425.099 224.661 425.477 226.561C425.59 227.387 425.55 228.241 425.649 229.071C425.659 229.455 425.746 229.834 425.902 230.185C426.059 230.536 426.284 230.853 426.563 231.118C427.34 231.637 428.253 230.871 428.806 229.937C429.3 229.17 429.522 228.259 429.435 227.351C429.312 226.741 429.065 226.163 428.709 225.653Z" fill="#2DB12D"/>
<path d="M436.45 226.705C436.544 225.948 436.482 225.181 436.269 224.449C436.234 223.459 436.496 222.481 437.023 221.642C437.545 220.85 437.942 219.982 438.197 219.068C438.304 218.651 438.285 218.212 438.14 217.807C437.977 217.44 437.581 217.273 437.355 217.563L437.84 217.876C437.184 217.759 436.511 217.792 435.869 217.972C435.503 218.112 435.177 218.338 434.917 218.631C434.657 218.924 434.471 219.275 434.376 219.655C434.295 220.248 434.164 220.832 433.984 221.402C433.694 221.998 433.133 222.196 432.781 222.719C432.541 223.182 432.42 223.698 432.428 224.22C432.437 224.741 432.575 225.253 432.831 225.708C433.273 226.452 433.977 227.006 434.804 227.26C435.397 227.473 436.178 227.484 436.45 226.705Z" fill="#2DB12D"/>
<path d="M450.236 230.864C450.45 231.422 450.737 231.949 451.09 232.432C451.75 233.096 452.647 232.688 453.447 232.526C454.174 232.412 454.918 232.496 455.601 232.769C456.283 233.043 456.879 233.497 457.325 234.082C457.014 232.533 456.337 231.082 455.349 229.849C454.361 228.617 453.092 227.64 451.648 226.999C449.772 226.35 447.795 226.041 445.81 226.087L445.471 226.173C446.335 228.688 449.048 228.632 450.236 230.864Z" fill="#2DB12D"/>
<path d="M391.849 236.007L391.854 236.018L391.952 235.828L391.849 236.007Z" fill="#2DB12D"/>
<path d="M389.758 240.055C389.302 240.883 388.909 241.745 388.584 242.633C388.154 244.071 387.869 245.548 387.734 247.043C387.628 247.893 387.595 248.978 388.128 249.392C388.281 249.494 388.465 249.536 388.647 249.511C388.829 249.487 388.995 249.397 389.116 249.258C389.412 248.945 389.654 248.585 389.832 248.193C390.879 246.391 391.691 244.462 392.25 242.455C392.833 240.324 392.694 238.061 391.854 236.019C391.155 237.364 390.457 238.71 389.758 240.055Z" fill="#2DB12D"/>
<path d="M369.583 132.21C369.915 132.535 370.335 132.755 370.791 132.844C371.247 132.933 371.719 132.887 372.149 132.711C373.039 132.322 373.856 131.782 374.563 131.116C375.149 130.683 375.646 130.141 376.027 129.519C376.236 129.148 376.371 128.739 376.422 128.316C376.474 127.893 376.441 127.463 376.326 127.053C376.162 126.659 375.901 126.314 375.567 126.05C375.233 125.786 374.837 125.611 374.416 125.542C373.231 125.191 372.047 124.839 370.862 124.488L371.719 123.715C370.837 123.242 369.861 124.121 369.31 125.208C368.957 125.918 368.71 126.677 368.579 127.459C368.391 128.276 368.384 129.125 368.557 129.945C368.731 130.766 369.081 131.538 369.583 132.21Z" fill="#2DB12D"/>
<path d="M390.502 125.187C390.836 125.555 391.297 125.783 391.793 125.823C392.288 125.863 392.781 125.713 393.17 125.404C393.505 125.153 393.783 124.833 393.986 124.467C394.189 124.101 394.313 123.696 394.35 123.279C394.434 122.347 393.973 121.311 393.315 121.23L393.465 120.358C392.197 120.129 390.637 120.083 389.958 121.623C389.728 122.212 389.658 122.852 389.754 123.478C389.849 124.103 390.107 124.693 390.502 125.187Z" fill="#2DB12D"/>
<path d="M448.843 319.292C452.619 318.287 455.113 315.342 454.413 312.715C453.713 310.088 450.085 308.774 446.309 309.78C442.533 310.785 440.039 313.73 440.739 316.357C441.438 318.984 445.067 320.298 448.843 319.292Z" fill="#E6E6E6"/>
<path d="M402.595 320.147C406.371 319.142 408.865 316.197 408.165 313.57C407.465 310.943 403.837 309.629 400.061 310.635C396.285 311.64 393.791 314.585 394.491 317.212C395.19 319.839 398.819 321.153 402.595 320.147Z" fill="#E6E6E6"/>
<path d="M457.059 280.812C460.835 279.807 463.329 276.862 462.629 274.235C461.93 271.609 458.302 270.294 454.526 271.3C450.75 272.306 448.256 275.25 448.955 277.877C449.655 280.504 453.283 281.818 457.059 280.812Z" fill="#E6E6E6"/>
<path d="M470.7 264.455C472.405 264.244 473.54 262.086 473.237 259.635C472.933 257.184 471.304 255.369 469.599 255.58C467.894 255.792 466.759 257.95 467.062 260.401C467.366 262.851 468.995 264.667 470.7 264.455Z" fill="#E6E6E6"/>
<path d="M474.153 235.425C475.858 235.214 476.994 233.055 476.69 230.605C476.386 228.154 474.758 226.338 473.053 226.55C471.348 226.761 470.212 228.919 470.516 231.37C470.82 233.821 472.448 235.636 474.153 235.425Z" fill="#E6E6E6"/>
<path d="M427.532 291.232C429.237 291.021 430.373 288.863 430.069 286.412C429.765 283.961 428.137 282.146 426.432 282.357C424.727 282.569 423.591 284.727 423.895 287.178C424.199 289.628 425.827 291.444 427.532 291.232Z" fill="#E6E6E6"/>
<path d="M450.915 299.696C452.62 299.485 453.756 297.326 453.452 294.876C453.148 292.425 451.52 290.609 449.815 290.821C448.11 291.032 446.974 293.19 447.278 295.641C447.582 298.092 449.21 299.907 450.915 299.696Z" fill="#E6E6E6"/>
<path d="M422.524 323.668C424.229 323.456 425.365 321.298 425.061 318.847C424.757 316.396 423.128 314.581 421.424 314.792C419.719 315.004 418.583 317.162 418.887 319.613C419.19 322.064 420.819 323.879 422.524 323.668Z" fill="#E6E6E6"/>
<path d="M218.951 280.453C222.727 279.447 225.221 276.502 224.522 273.876C223.822 271.249 220.194 269.935 216.418 270.94C212.642 271.946 210.148 274.89 210.847 277.517C211.547 280.144 215.175 281.458 218.951 280.453Z" fill="#E6E6E6"/>
<path d="M172.701 281.309C176.477 280.304 178.971 277.359 178.271 274.732C177.572 272.106 173.944 270.791 170.168 271.797C166.392 272.803 163.898 275.747 164.597 278.374C165.297 281.001 168.925 282.315 172.701 281.309Z" fill="#E6E6E6"/>
<path d="M227.169 241.972C230.945 240.966 233.439 238.021 232.74 235.395C232.04 232.768 228.412 231.454 224.636 232.459C220.86 233.465 218.366 236.41 219.066 239.036C219.765 241.663 223.393 242.977 227.169 241.972Z" fill="#E6E6E6"/>
<path d="M240.809 225.616C242.513 225.405 243.649 223.246 243.345 220.796C243.042 218.345 241.413 216.529 239.708 216.741C238.003 216.952 236.867 219.11 237.171 221.561C237.475 224.012 239.104 225.827 240.809 225.616Z" fill="#E6E6E6"/>
<path d="M244.262 196.585C245.967 196.374 247.103 194.216 246.799 191.765C246.495 189.314 244.867 187.499 243.162 187.71C241.457 187.922 240.321 190.08 240.625 192.531C240.929 194.981 242.557 196.797 244.262 196.585Z" fill="#E6E6E6"/>
<path d="M197.641 252.393C199.346 252.181 200.482 250.023 200.178 247.572C199.874 245.122 198.246 243.306 196.541 243.518C194.836 243.729 193.7 245.887 194.004 248.338C194.308 250.789 195.936 252.604 197.641 252.393Z" fill="#E6E6E6"/>
<path d="M221.024 260.856C222.729 260.645 223.864 258.487 223.56 256.036C223.257 253.585 221.628 251.77 219.923 251.981C218.218 252.193 217.083 254.351 217.386 256.802C217.69 259.252 219.319 261.068 221.024 260.856Z" fill="#E6E6E6"/>
<path d="M192.633 284.828C194.338 284.617 195.473 282.459 195.17 280.008C194.866 277.557 193.237 275.742 191.532 275.953C189.827 276.164 188.692 278.322 188.996 280.773C189.299 283.224 190.928 285.04 192.633 284.828Z" fill="#E6E6E6"/>
<path d="M499.943 102.614C503.719 101.609 506.213 98.6642 505.513 96.0374C504.813 93.4106 501.185 92.0964 497.409 93.102C493.633 94.1076 491.139 97.0523 491.839 99.679C492.538 102.306 496.167 103.62 499.943 102.614Z" fill="#E6E6E6"/>
<path d="M453.692 103.471C457.468 102.466 459.962 99.521 459.263 96.8942C458.563 94.2675 454.935 92.9533 451.159 93.9589C447.383 94.9645 444.889 97.9091 445.588 100.536C446.288 103.163 449.916 104.477 453.692 103.471Z" fill="#E6E6E6"/>
<path d="M508.16 64.1326C511.936 63.127 514.43 60.1824 513.731 57.5556C513.031 54.9288 509.403 53.6146 505.627 54.6202C501.851 55.6258 499.357 58.5705 500.057 61.1973C500.756 63.8241 504.384 65.1383 508.16 64.1326Z" fill="#E6E6E6"/>
<path d="M521.8 47.7779C523.505 47.5665 524.64 45.4083 524.337 42.9575C524.033 40.5066 522.404 38.6912 520.699 38.9026C518.994 39.114 517.859 41.2721 518.163 43.723C518.466 46.1738 520.095 47.9893 521.8 47.7779Z" fill="#E6E6E6"/>
<path d="M525.253 18.7473C526.958 18.5359 528.094 16.3777 527.79 13.9269C527.486 11.4761 525.858 9.66061 524.153 9.872C522.448 10.0834 521.312 12.2415 521.616 14.6924C521.92 17.1432 523.548 18.9587 525.253 18.7473Z" fill="#E6E6E6"/>
<path d="M478.632 74.5548C480.337 74.3434 481.473 72.1852 481.169 69.7344C480.866 67.2835 479.237 65.4681 477.532 65.6795C475.827 65.8909 474.691 68.049 474.995 70.4999C475.299 72.9507 476.928 74.7662 478.632 74.5548Z" fill="#E6E6E6"/>
<path d="M502.015 83.0183C503.72 82.8069 504.856 80.6488 504.552 78.1979C504.248 75.7471 502.62 73.9317 500.915 74.143C499.21 74.3544 498.074 76.5126 498.378 78.9634C498.682 81.4143 500.31 83.2297 502.015 83.0183Z" fill="#E6E6E6"/>
<path d="M473.624 106.99C475.329 106.779 476.465 104.621 476.161 102.17C475.857 99.7188 474.229 97.9034 472.524 98.1148C470.819 98.3262 469.683 100.484 469.987 102.935C470.291 105.386 471.919 107.201 473.624 106.99Z" fill="#E6E6E6"/>
<path d="M205.055 287.032C197.488 287.032 192.568 285.152 190.391 281.414C186.097 274.043 193.288 261.11 211.764 242.974L213.316 244.555C196.154 261.402 188.692 274.096 192.305 280.299C194.591 284.222 201.395 285.629 211.985 284.364C222.498 283.109 236.431 279.368 253.395 273.246C288.321 260.641 332.138 239.38 376.776 213.378C421.412 187.377 461.521 159.75 489.714 135.587C495.13 130.945 500.044 126.479 504.322 122.315C509.937 116.981 515.117 111.208 519.813 105.05C526.137 96.4633 528.271 89.8506 525.985 85.9265C522.167 79.3725 506.128 79.9888 480.82 87.6643L480.178 85.5439C507.33 77.3102 523.386 77.0632 527.9 84.8115C530.704 89.6256 528.583 96.877 521.597 106.364C516.829 112.62 511.569 118.484 505.867 123.902C501.557 128.099 496.607 132.596 491.156 137.269C462.864 161.517 422.639 189.227 377.891 215.292C333.141 241.36 289.195 262.681 254.148 275.33C237.025 281.509 222.928 285.289 212.248 286.564C209.862 286.861 207.46 287.018 205.055 287.032Z" fill="#3F3D56"/>
<path d="M364.049 413.553C364.049 413.553 357.322 412.614 357.322 402.814C357.322 393.014 352.507 374.71 352.507 374.71C352.507 374.625 348.341 342.834 342.587 337.78C336.833 332.726 329.44 303.051 329.44 303.051C329.44 303.051 328.177 286.951 325.599 283.485C323.02 280.019 319.537 271.533 314.398 259.428C309.259 247.322 287.831 238.939 287.831 238.939C287.831 238.939 249.091 216.47 238.112 209.145C237.114 208.543 236.182 207.84 235.329 207.045C233.417 204.535 225.085 204.484 225.085 204.484C224.214 198.986 223.377 192.669 223.104 186.949C223.104 186.334 223.104 185.72 223.019 185.105C235.261 177.869 244.481 166.46 248.988 152.972C249.193 152.323 249.364 151.64 249.552 150.992C250.285 150.75 250.96 150.358 251.533 149.84C252.107 149.323 252.566 148.692 252.881 147.987C253.871 145.784 253.888 143.206 255.118 141.157C256.552 138.733 259.284 137.435 261.435 135.608C266.865 130.998 268.265 123.229 268.008 116.161C267.838 110.441 266.916 104.67 267.274 98.9846L267.377 97.5504C267.479 96.6967 267.599 95.843 267.752 95.0234C268.589 90.7891 270.416 86.7938 271.44 82.5937C272.465 78.3935 272.567 73.664 270.177 70.0444C266.677 64.7344 259.386 63.6758 252.983 63.1294C245.727 62.5148 239.239 63.3173 234.595 57.2902C232.421 54.1401 229.976 51.1864 227.287 48.463C226.331 47.5752 217.043 41.9066 217.043 41.531C207.978 37.3324 197.702 36.5443 188.103 39.3114C183.288 40.7115 178.746 42.9994 173.863 44.1433C163.329 46.6361 151.206 43.9384 142.259 49.9655C137.274 53.3803 134.286 58.8098 131.486 64.1027C129.209 68.4622 126.899 72.816 124.554 77.1642C120.781 84.3181 116.939 91.5916 115.351 99.5138C115.017 101.238 114.812 102.984 114.736 104.738V104.824C114.736 105.456 114.736 106.087 114.736 106.719V107.521C114.736 108.119 114.736 108.7 114.839 109.229C114.941 109.758 114.924 109.929 114.975 110.287C115.027 110.646 115.112 111.448 115.214 111.995C115.317 112.541 115.522 113.497 115.727 114.249C115.812 114.573 115.932 114.88 116.034 115.188C116.205 115.768 116.41 116.332 116.632 116.895C116.751 117.185 116.871 117.493 117.007 117.783C117.263 118.38 117.571 118.961 117.878 119.49C118.015 119.729 118.117 119.951 118.254 120.173C118.73 120.967 119.255 121.731 119.824 122.461C123.478 127.02 128.856 129.922 132.835 134.191C132.835 134.362 132.835 134.532 132.835 134.686C132.835 135.164 132.835 135.625 132.835 136.103C133.046 145.623 135.579 154.947 140.216 163.264C144.852 171.581 151.45 178.639 159.436 183.825C159.436 184.473 159.521 185.139 159.555 185.788C159.888 190.856 159.825 195.943 159.367 201.001C158.672 200.182 157.802 199.53 156.821 199.092C155.84 198.655 154.773 198.444 153.699 198.474C152.965 198.438 152.23 198.501 151.513 198.662L151.36 198.542V198.696C147.604 199.618 142.977 203.528 138.554 214.643C138.554 214.643 125.1 229.805 114.856 229.173C104.612 228.541 78.6764 244.949 78.6764 244.949C78.6764 244.949 53.3729 261.374 47.9434 278.106C44.9086 287.595 41.2701 296.879 37.0503 305.903L5.77097 370.357L0 421.493C0 421.493 3.19281 444.235 2.56108 447.701C1.92935 451.167 15.6909 482.429 15.6909 482.429C15.6909 482.429 61.1586 562.318 79.735 566.416L81.0667 565.477C81.8615 565.892 82.7045 566.207 83.5766 566.416L87.4011 563.718C87.6308 566.725 87.5335 569.747 87.1109 572.733C84.5498 580.621 88.067 632.099 92.5404 642.19C97.0137 652.28 95.4259 784.586 95.4259 784.586L94.7941 796.264C94.7941 796.264 94.7941 796.64 94.9478 797.289L94.7941 800.055L95.2551 800.294C95.7338 803.998 95.5779 807.757 94.7941 811.409C93.1892 816.531 92.5404 831.009 92.5404 831.009C92.5404 831.009 79.752 912.759 85.8133 929.184C91.8745 945.609 97.0308 963.605 97.0308 963.605C97.0308 963.605 103.433 984.094 97.3381 987.594C91.2428 991.094 73.9128 996.967 77.4812 1005.5C80.7252 1013.39 93.0355 1034.53 94.8624 1037.62L94.7087 1039.24L92.1989 1066.44C92.6053 1070.03 93.5792 1073.54 95.0844 1076.82C97.8333 1082.75 103.177 1088.89 113.336 1088.23C115.044 1088.11 117.024 1087.9 118.937 1087.65C137.53 1085.15 160.426 1076.86 160.426 1076.86C159.237 1076.1 158.148 1075.2 157.182 1074.18C156.268 1073.29 155.544 1072.23 155.054 1071.05C154.564 1069.88 154.318 1068.62 154.331 1067.35C154.604 1062.39 145.333 1038.8 143.028 1032.99C142.669 1032.16 142.481 1031.68 142.481 1031.68C142.481 1031.68 163.619 1009.59 160.102 990.001C160.102 990.001 136.71 976.342 144.411 968.847C152.111 961.351 165.873 939.821 165.873 939.821C165.873 939.821 166.504 859.318 165.873 847.298C165.214 838.955 165.61 830.563 167.051 822.319C167.307 821.072 167.614 819.86 167.939 818.665C178.588 820.255 189.338 821.071 200.106 821.107C204.033 821.107 208.028 821.107 212.057 820.868C212.057 822.006 212.109 823.235 212.211 824.556C213.099 844.498 214.755 879.465 216.104 892.458C218.016 911.086 228.585 961.283 228.585 961.283C228.585 961.283 208.421 974.225 232.102 1006.12C232.102 1006.12 232.102 1017.68 230.531 1019.35C228.854 1024.82 227.503 1030.39 226.485 1036.02C225.495 1042.03 225.085 1048.1 226.69 1051.26C230.531 1058.81 253.581 1058.19 253.581 1058.19L254.144 1058.09C258.496 1057.64 262.894 1058.06 267.082 1059.32C271.27 1060.59 275.166 1062.67 278.543 1065.45C287.302 1072.49 320.545 1069.39 338.541 1067.16C345.592 1066.27 350.305 1065.45 350.305 1065.45C350.533 1064.65 350.614 1063.82 350.544 1062.99C350.356 1058.57 346.89 1048.87 323.396 1040.22C323.396 1040.22 301.302 1025.36 301.61 1012.42H301.149H298.588C300.449 1012.32 301.644 1012.42 301.644 1012.42C301.644 1012.42 292.988 980.833 296.522 978.272C300.056 975.71 289.47 940.709 289.47 940.709C289.47 940.709 283.409 881.975 283.085 877.86C283.098 874.329 283.633 870.82 284.673 867.445L283.085 835.244C283.085 835.244 282.777 824.538 283.085 821.055C283.033 818.032 282.788 815.015 282.35 812.023C282.197 810.828 282.043 809.582 281.872 808.352C290.153 806.252 295.532 804.306 295.532 804.306L294.575 692.216C301.61 678.557 302.907 648.592 302.873 627.335C302.873 613.676 302.259 603.569 302.259 603.569L311.871 587.878C311.871 587.878 314.091 569.096 310.574 564.982C309.02 563.12 309.72 561.191 311 559.603C311.665 559.076 312.367 558.597 313.101 558.169C313.101 558.169 312.998 558.015 312.879 557.794C313.55 557.233 314.263 556.725 315.013 556.274C315.013 556.274 311.598 550.981 314.654 548.744C317.523 550.691 320.084 552.159 322.03 553.354C321.894 554.601 321.757 555.318 321.757 555.318L322.577 553.61C324.455 554.669 325.599 555.318 325.599 555.318C325.599 555.318 340.658 525.319 340.333 520.897C340.009 516.475 350.578 497.847 350.578 497.847C350.578 497.847 351.858 488.064 357.629 483.966C363.4 479.868 362.103 450.177 362.103 450.177C362.103 450.177 363.707 434.708 367.549 428.391C371.391 422.073 364.049 413.553 364.049 413.553ZM75.9104 400.389L76.2007 407.543C74.4933 404.795 73.264 402.814 73.264 402.814L75.9104 400.389Z" fill="url(#paint0_linear_7_241)"/>
<path d="M326.418 542.359L322.73 558.067C322.73 558.067 293.192 542.991 287.865 523.834C282.538 504.677 296.778 497.403 296.778 497.403L324.301 509.065L326.418 542.359Z" fill="white"/>
<path opacity="0.1" d="M326.418 542.359L322.73 558.067C322.73 558.067 293.192 542.991 287.865 523.834C282.538 504.677 296.778 497.403 296.778 497.403L324.301 509.065L326.418 542.359Z" fill="black"/>
<path d="M201.182 267.913C178.644 259.155 149.653 230.214 156.892 216.692C158.5 213.279 159.455 209.597 159.709 205.833C160.175 200.724 160.243 195.586 159.914 190.466C159.406 182.082 158.397 173.734 156.892 165.47C156.892 165.47 227.253 167.058 223.156 177.422C221.96 180.461 221.773 185.737 222.097 191.644C222.421 197.552 223.275 204.228 224.163 209.879C225.392 217.631 226.622 223.538 226.622 223.538C226.622 223.538 222.319 229.566 219.792 229.89C217.265 230.214 233.519 280.394 201.182 267.913Z" fill="#CF6F80"/>
<path opacity="0.1" d="M223.156 177.422C221.961 180.461 221.773 185.737 222.097 191.644C212.673 197.32 201.838 200.221 190.838 200.016C179.839 199.811 169.12 196.507 159.914 190.483C159.407 182.093 158.398 173.74 156.892 165.47C156.892 165.47 227.253 167.024 223.156 177.422Z" fill="black"/>
<path d="M250.354 139.689C250.368 145.841 249.4 151.957 247.486 157.804C243.208 170.906 234.437 182.074 222.721 189.334C211.006 196.594 197.101 199.479 183.465 197.478C169.828 195.478 157.338 188.721 148.201 178.403C139.064 168.084 133.87 154.867 133.535 141.089C133.535 140.611 133.535 140.167 133.535 139.689C133.402 131.933 134.815 124.229 137.692 117.025C140.568 109.821 144.85 103.262 150.288 97.7306C155.725 92.199 162.21 87.8057 169.364 84.8067C176.517 81.8077 184.196 80.2632 191.953 80.2632C199.71 80.2632 207.389 81.8077 214.543 84.8067C221.696 87.8057 228.181 92.199 233.619 97.7306C239.057 103.262 243.338 109.821 246.215 117.025C249.091 124.229 250.504 131.933 250.371 139.689H250.354Z" fill="#CF6F80"/>
<path opacity="0.1" d="M201.182 267.913C178.644 259.155 149.653 230.214 156.892 216.692C158.5 213.279 159.455 209.597 159.709 205.833L190.562 231.188L209.65 246.844L224.163 209.896C225.392 217.648 226.622 223.556 226.622 223.556C226.622 223.556 222.319 229.583 219.792 229.907C217.265 230.231 233.519 280.394 201.182 267.913Z" fill="black"/>
<path d="M280.968 379.969L255.203 812.792L221.602 814.994L134.593 564.025L148.867 266.069L151.872 203.118L190.561 234.893L209.667 250.549L224.607 212.526L252.386 236.737L280.968 379.969Z" fill="#2DA2D8"/>
<path opacity="0.1" d="M232.273 820.031C162.27 831.983 98.1578 797.715 98.1578 797.715L98.7725 786.105C98.7725 786.105 100.36 654.483 95.9553 644.392C91.5503 634.302 88.1184 583.131 90.6112 575.277C93.104 567.423 81.5108 449.648 81.5108 449.648L79.6327 401.841L10.8933 373.993L41.6263 309.932C45.7773 300.951 49.3474 291.712 52.3145 282.273C57.6586 265.643 82.467 249.303 82.467 249.303C82.467 249.303 107.907 232.98 117.964 233.595C128.02 234.21 141.201 219.15 141.201 219.15C150.933 194.342 159.743 205.577 159.743 205.577C159.743 206.755 159.743 205.577 159.265 209.248C155.85 236.48 214.482 322.533 215.319 324.052L220.902 460.063L226.553 632.184L232.273 820.031Z" fill="black"/>
<path d="M230.395 820.031C160.392 831.983 96.2626 797.716 96.2626 797.716L96.8943 786.105C96.8943 786.105 98.4821 654.483 94.06 644.392C89.6379 634.302 86.2231 583.131 88.733 575.277C91.2428 567.423 79.6326 449.648 79.6326 449.648L77.7374 401.841L8.96387 373.891L39.6968 309.83C43.8388 300.844 47.4087 291.606 50.3851 282.17C55.7121 265.54 80.5375 249.201 80.5375 249.201C80.5375 249.201 105.978 232.878 116.017 233.493C126.056 234.107 139.255 219.048 139.255 219.048C149.004 194.24 159.743 205.474 159.743 205.474C159.743 206.652 158.719 207.182 159.265 209.145C166.778 235.558 212.604 322.43 213.441 323.95L219.092 459.96L224.743 632.082L230.395 820.031Z" fill="white"/>
<path opacity="0.1" d="M211.529 327.826C203.999 324.684 164.114 279.148 164.114 279.148V268.784C162.663 265.369 154.041 267.452 147.041 269.843L150.046 206.891L153.46 209.726C160.939 236.122 210.658 326.306 211.529 327.826Z" fill="black"/>
<path d="M213.424 324.052C205.877 320.911 165.992 275.375 165.992 275.375V265.011C164.541 261.596 155.919 263.679 148.918 266.069L151.941 203.118L155.355 205.952C162.851 232.349 212.587 322.55 213.424 324.052Z" fill="white"/>
<path d="M132.237 520.692C132.237 520.692 176.049 544.237 176.988 551.425C177.927 558.613 154.689 548.283 149.67 547.037C146.366 546.241 143.003 545.716 139.613 545.466L106.131 546.371L132.237 520.692Z" fill="#CF6F80"/>
<path opacity="0.1" d="M199.303 330.762C201.849 330.762 203.913 328.698 203.913 326.152C203.913 323.606 201.849 321.542 199.303 321.542C196.757 321.542 194.693 323.606 194.693 326.152C194.693 328.698 196.757 330.762 199.303 330.762Z" fill="black"/>
<path d="M199.303 328.884C201.849 328.884 203.913 326.82 203.913 324.274C203.913 321.728 201.849 319.664 199.303 319.664C196.757 319.664 194.693 321.728 194.693 324.274C194.693 326.82 196.757 328.884 199.303 328.884Z" fill="#3F3D56"/>
<path opacity="0.1" d="M207.789 530.322C210.335 530.322 212.399 528.258 212.399 525.712C212.399 523.166 210.335 521.102 207.789 521.102C205.243 521.102 203.179 523.166 203.179 525.712C203.179 528.258 205.243 530.322 207.789 530.322Z" fill="black"/>
<path d="M207.789 528.427C210.335 528.427 212.399 526.363 212.399 523.817C212.399 521.271 210.335 519.207 207.789 519.207C205.243 519.207 203.179 521.271 203.179 523.817C203.179 526.363 205.243 528.427 207.789 528.427Z" fill="#3F3D56"/>
<path opacity="0.1" d="M203.896 430.542C206.442 430.542 208.506 428.478 208.506 425.932C208.506 423.386 206.442 421.322 203.896 421.322C201.35 421.322 199.286 423.386 199.286 425.932C199.286 428.478 201.35 430.542 203.896 430.542Z" fill="black"/>
<path d="M203.896 428.664C206.442 428.664 208.506 426.6 208.506 424.054C208.506 421.508 206.442 419.444 203.896 419.444C201.35 419.444 199.286 421.508 199.286 424.054C199.286 426.6 201.35 428.664 203.896 428.664Z" fill="#3F3D56"/>
<path d="M310.164 544.51C310.164 544.51 313.305 549.222 310.164 551.425C307.022 553.628 310.471 558.955 310.471 558.955C310.471 558.955 302.634 563.548 306.083 567.679C309.532 571.811 307.347 590.473 307.347 590.473L297.922 606.078C297.922 606.078 298.485 616.135 298.52 629.726C298.52 650.932 297.273 680.742 290.375 694.333L291.331 805.843C291.331 805.843 258.328 817.897 230.702 814.226L226.604 635.292C226.604 635.292 232.58 533.822 234.783 514.358C236.072 504.253 236.597 494.065 236.354 483.881C236.354 483.881 235.415 453.421 232.256 439.284C232.256 439.284 228.841 378.04 228.5 361.086C228.346 352.975 228.773 329.311 229.251 306.808C229.78 282.204 230.378 259.001 230.378 259.001L224.146 209.692C224.146 209.692 230.378 209.06 232.256 211.57C233.097 212.356 234.012 213.059 234.988 213.67C245.744 220.943 283.751 243.31 283.751 243.31C283.751 243.31 304.786 251.676 309.822 263.662C314.859 275.648 318.359 284.151 320.801 287.566C323.242 290.98 324.574 307.03 324.574 307.03C324.574 307.03 331.814 336.568 337.465 341.57C343.116 346.573 347.248 378.398 347.248 378.398L297.307 417.668C297.307 417.668 292.919 482.993 291.98 485.52C291.041 488.047 310.164 544.51 310.164 544.51Z" fill="white"/>
<path d="M312.059 544.51C312.059 544.51 315.184 549.222 312.059 551.425C308.935 553.627 312.349 558.955 312.349 558.955C312.349 558.955 304.564 563.599 307.979 567.73C311.393 571.862 309.242 590.524 309.242 590.524L299.817 606.13C299.817 606.13 300.381 616.186 300.432 629.777C300.432 650.983 299.186 680.794 292.288 694.384L293.227 805.894C293.227 805.894 260.172 817.948 232.58 814.277L228.5 635.343C228.5 635.343 234.476 533.873 236.678 514.409C237.969 504.304 238.488 494.116 238.232 483.932C238.232 483.932 237.293 453.472 234.151 439.335C234.151 439.335 230.736 378.091 230.378 361.137C230.224 353.027 230.668 329.362 231.129 306.859C231.658 282.255 232.256 259.052 232.256 259.052L224.026 209.077C224.026 209.077 232.256 209.077 234.151 211.621C234.985 212.416 235.9 213.12 236.883 213.721C247.64 220.994 285.663 243.361 285.663 243.361C285.663 243.361 306.681 251.727 311.718 263.713C316.755 275.699 320.255 284.202 322.713 287.617C325.172 291.031 326.47 307.081 326.47 307.081C326.47 307.081 333.709 336.619 339.36 341.621C345.012 346.624 349.092 378.381 349.092 378.381L299.151 417.651C299.151 417.651 294.763 482.976 293.807 485.503C292.851 488.03 312.059 544.51 312.059 544.51Z" fill="white"/>
<path opacity="0.1" d="M252.249 273.548L256.757 286.695L233.024 310.598C233.553 286.012 234.151 262.791 234.151 262.791L225.921 212.816C225.921 212.816 234.151 212.816 236.046 215.36C236.877 216.153 237.793 216.852 238.778 217.443L258.959 275.665L252.249 273.548Z" fill="black"/>
<path d="M250.354 269.774L254.879 282.921L231.146 306.825C231.675 282.221 232.273 259.018 232.273 259.018L224.026 209.043C224.026 209.043 232.273 209.043 234.151 211.587C234.989 212.377 235.904 213.081 236.883 213.687L257.081 271.892L250.354 269.774Z" fill="white"/>
<path opacity="0.1" d="M250.354 139.689C250.368 145.841 249.4 151.957 247.486 157.804C247.163 157.854 246.834 157.84 246.517 157.76C246.201 157.681 245.903 157.539 245.642 157.343C245.198 141.977 237.634 127.549 228.329 115.273C225.717 111.567 222.549 108.284 218.938 105.541C215.288 102.799 210.747 101.515 206.201 101.938C201.079 102.638 196.555 106.121 191.381 106.565C184.552 107.129 178.439 102.399 171.661 102.16C168.905 102.186 166.187 102.8 163.687 103.96C161.188 105.12 158.964 106.8 157.165 108.887C153.604 113.1 150.959 118.007 149.397 123.298C146.712 131.32 145.25 139.7 145.06 148.157C144.974 152.938 144.513 158.931 140.074 160.672C140.408 157.157 140.009 153.61 138.901 150.256C137.793 146.903 136 143.816 133.637 141.191L133.535 141.089C133.535 140.611 133.535 140.167 133.535 139.689C133.402 131.933 134.815 124.229 137.692 117.025C140.568 109.821 144.85 103.262 150.288 97.7306C155.725 92.199 162.21 87.8057 169.364 84.8067C176.517 81.8077 184.196 80.2632 191.953 80.2632C199.71 80.2632 207.389 81.8077 214.543 84.8067C221.696 87.8057 228.181 92.199 233.619 97.7306C239.057 103.262 243.338 109.821 246.215 117.025C249.091 124.229 250.504 131.933 250.371 139.689H250.354Z" fill="black"/>
<path d="M216.138 46.9264C207.266 42.7529 197.175 41.9636 187.762 44.7068C183.032 46.1068 178.576 48.3777 173.778 49.5216C163.534 51.9973 151.582 49.3167 142.789 55.3096C137.906 58.7244 134.969 64.1198 132.238 69.3615L125.408 82.3717C121.686 89.4915 117.93 96.7308 116.376 104.568C114.822 112.405 115.761 121.181 120.73 127.481C124.349 132.074 129.694 134.959 133.62 139.279C135.973 141.906 137.758 144.991 138.862 148.341C139.967 151.69 140.368 155.232 140.04 158.743C144.497 157.036 144.923 151.026 145.026 146.245C145.216 137.788 146.678 129.408 149.363 121.386C150.921 116.094 153.567 111.186 157.131 106.975C158.932 104.889 161.155 103.211 163.655 102.051C166.154 100.891 168.872 100.276 171.627 100.248C178.456 100.487 184.586 105.199 191.347 104.636C196.469 104.209 201.011 100.709 206.167 100.026C210.714 99.5959 215.257 100.881 218.904 103.629C222.514 106.368 225.676 109.651 228.278 113.361C237.6 125.637 245.164 140.03 245.608 155.431C247.537 156.848 250.32 155.004 251.277 152.819C252.233 150.633 252.267 148.072 253.479 145.989C254.879 143.582 257.56 142.301 259.66 140.491C264.987 135.898 266.319 128.164 266.114 121.146C265.909 114.129 264.543 107.009 265.875 100.111C266.677 95.8772 268.487 91.916 269.477 87.7329C270.468 83.5498 270.587 78.8545 268.248 75.2519C264.833 69.959 257.645 68.9175 251.379 68.4224C244.259 67.8077 237.891 68.5931 233.349 62.6002C231.217 59.4729 228.818 56.5365 226.178 53.8242C225.273 52.9364 216.138 47.302 216.138 46.9264Z" fill="#512E4E"/>
<path opacity="0.1" d="M30.5625 406.98L12.7203 373.993L7.06885 424.891C7.06885 424.891 10.2104 447.496 9.57871 450.962C8.94697 454.428 22.4524 485.503 22.4524 485.503C22.4524 485.503 67.0664 564.965 85.2842 569.062L146.835 525.08L130.513 504.352C130.513 504.352 124.861 502.15 123.444 504.352C123.444 504.352 93.1382 452.209 89.9966 448.435C86.855 444.662 87.4697 437.132 87.4697 437.132C87.4697 437.132 82.7573 432.113 84.3281 427.4C85.8989 422.688 75.2277 406.348 75.2277 406.348L84.9598 397.248L30.5625 406.98Z" fill="black"/>
<path d="M13.6595 370.237L8.9471 373.993L3.29565 424.891C3.29565 424.891 6.43725 447.496 5.80551 450.962C5.17378 454.428 18.6963 485.503 18.6963 485.503C18.6963 485.503 63.2932 564.965 81.511 569.062L143.079 525.08L126.74 504.352C126.74 504.352 121.088 502.15 119.671 504.352C119.671 504.352 89.365 452.209 86.2234 448.435C83.0818 444.662 83.7136 437.132 83.7136 437.132C83.7136 437.132 79.0012 432.113 80.572 427.4C82.1428 422.688 71.4546 406.348 71.4546 406.348L81.1867 397.248L13.6595 370.237Z" fill="white"/>
<path d="M320.221 525.729C320.221 525.729 317.711 541.761 311.428 542.7C305.144 543.639 302.327 568.635 296.061 567.748C289.795 566.86 293.944 544.51 294.166 540.173C294.388 535.837 287.336 517.875 292.612 513.794C297.888 509.714 314.586 513.794 314.586 513.794L320.221 525.729Z" fill="#CF6F80"/>
<path opacity="0.1" d="M333.589 402.268L345.439 378.364C345.439 378.364 350.151 396.582 350.151 406.314C350.151 416.046 356.741 417.002 356.741 417.002C356.741 417.002 363.964 425.539 360.156 431.754C356.349 437.969 354.812 453.438 354.812 453.438C354.812 453.438 356.059 482.959 350.407 487.039C344.756 491.12 343.578 500.869 343.578 500.869C343.578 500.869 333.197 519.394 333.521 523.799C333.845 528.205 319.077 558.033 319.077 558.033C319.077 558.033 326.299 520.965 284.212 504.95C284.212 504.95 283.887 492.366 287.029 488.918C290.17 485.469 295.071 483.898 291.997 466.465C288.924 449.033 291.11 428.203 291.11 424.02C291.11 419.837 300.534 393.748 300.534 393.748L333.589 402.268Z" fill="black"/>
<path d="M338.712 374.95L349.059 378.364C349.059 378.364 353.788 396.582 353.788 406.314C353.788 416.046 360.379 417.002 360.379 417.002C360.379 417.002 367.601 425.539 363.793 431.754C359.986 437.969 358.466 453.438 358.466 453.438C358.466 453.438 359.713 482.959 354.061 487.039C348.41 491.12 347.146 500.869 347.146 500.869C347.146 500.869 336.782 519.394 337.107 523.799C337.431 528.205 322.645 558.033 322.645 558.033C322.645 558.033 329.885 520.965 287.78 504.95C287.78 504.95 287.473 492.366 290.615 488.918C293.756 485.469 298.656 483.898 295.583 466.465C292.51 449.033 294.695 428.203 294.695 424.02C294.695 419.837 304.12 393.748 304.12 393.748L338.712 374.95Z" fill="white"/>
<g opacity="0.1">
<path d="M259.694 136.752C257.593 138.562 254.896 139.859 253.496 142.267C252.301 144.333 252.266 146.877 251.31 149.096C250.354 151.316 247.571 153.126 245.642 151.726C245.198 136.359 237.617 121.932 228.312 109.639C225.71 105.929 222.548 102.646 218.938 99.9065C215.284 97.1591 210.736 95.8744 206.184 96.304C201.062 97.004 196.554 100.487 191.381 100.914C184.551 101.494 178.422 96.7649 171.644 96.5259C168.889 96.5533 166.172 97.1693 163.675 98.3324C161.178 99.4956 158.958 101.179 157.165 103.27C153.601 107.474 150.955 112.377 149.396 117.663C146.713 125.686 145.251 134.066 145.06 142.523C144.957 147.287 144.513 153.228 140.108 155.004C140.211 156.265 140.211 157.533 140.108 158.794C144.547 157.087 144.991 151.077 145.094 146.296C145.284 137.839 146.746 129.459 149.431 121.437C150.989 116.145 153.635 111.237 157.199 107.026C158.996 104.941 161.217 103.262 163.713 102.102C166.21 100.943 168.925 100.328 171.678 100.299C178.507 100.538 184.654 105.251 191.415 104.687C196.537 104.26 201.079 100.76 206.218 100.077C210.77 99.6477 215.318 100.932 218.972 103.68C222.582 106.419 225.744 109.702 228.346 113.412C237.651 125.688 245.232 140.081 245.676 155.482C247.605 156.899 250.388 155.055 251.344 152.87C252.301 150.684 252.335 148.123 253.53 146.04C254.93 143.633 257.628 142.352 259.728 140.542C265.055 135.949 266.386 128.215 266.182 121.198C266.182 120.976 266.182 120.754 266.182 120.549C265.857 126.627 264.235 132.825 259.694 136.752Z" fill="black"/>
<path d="M133.654 135.54C129.727 131.22 124.366 128.335 120.764 123.759C117.73 119.708 115.997 114.832 115.795 109.775C115.258 116.094 117.022 122.394 120.764 127.515C124.366 132.108 129.727 134.993 133.654 139.313C137.425 143.538 139.688 148.894 140.091 154.543C140.353 151.105 139.917 147.65 138.811 144.385C137.705 141.119 135.951 138.111 133.654 135.54Z" fill="black"/>
<path d="M269.511 83.9937C268.504 88.1768 266.711 92.155 265.891 96.3723C265.406 99.1903 265.229 102.053 265.362 104.909C265.419 103.282 265.596 101.661 265.891 100.06C266.711 95.8259 268.504 91.8648 269.511 87.6817C270.098 85.3744 270.289 82.9842 270.074 80.6131C269.968 81.7521 269.78 82.8819 269.511 83.9937Z" fill="black"/>
</g>
</g>
<defs>
<linearGradient id="paint0_linear_7_241" x1="184.312" y1="1088.31" x2="184.312" y2="37.6894" gradientUnits="userSpaceOnUse">
<stop stop-color="#808080" stop-opacity="0.25"/>
<stop offset="0.54" stop-color="#808080" stop-opacity="0.12"/>
<stop offset="1" stop-color="#808080" stop-opacity="0.1"/>
</linearGradient>
</defs>
</svg>
