<svg width="255" height="276" viewBox="0 0 255 276" fill="none" xmlns="http://www.w3.org/2000/svg">
<g clip-path="url(#clip0_154_145)">
<path d="M178.708 120.708C194.033 120.708 206.456 108.285 206.456 92.9604C206.456 77.6358 194.033 65.2128 178.708 65.2128C163.383 65.2128 150.96 77.6358 150.96 92.9604C150.96 108.285 163.383 120.708 178.708 120.708Z" fill="#E2DB37"/>
<path d="M254.821 113.649C254.882 113.638 254.928 113.595 255 113.606C254.968 113.486 254.928 113.368 254.878 113.255C254.79 113.375 254.7 113.498 254.621 113.605L254.821 113.649Z" fill="white"/>
<path d="M68.7136 158.634C68.8757 164.688 69.8897 170.688 71.7259 176.459C71.7678 176.593 71.8118 176.725 71.8558 176.859H83.0972C83.0852 176.739 83.0732 176.605 83.0612 176.459C82.3116 167.842 77.9902 115.397 83.1571 106.428C82.7054 107.156 67.8421 131.254 68.7136 158.634Z" fill="#E6E6E6"/>
<path d="M69.5566 176.459C69.6506 176.593 69.7485 176.727 69.8485 176.859H78.2815C78.2176 176.745 78.1436 176.611 78.0577 176.459C76.6645 173.945 72.5409 166.427 68.7132 158.634C64.5996 150.259 60.8258 141.566 61.1436 138.42C61.0457 139.129 58.1993 160.76 69.5566 176.459Z" fill="#E6E6E6"/>
<path d="M157.188 177.901C157.047 183.179 156.163 188.41 154.562 193.441C154.526 193.558 154.487 193.673 154.449 193.79H144.648C144.659 193.685 144.669 193.568 144.68 193.441C145.333 185.929 149.101 140.206 144.596 132.387C144.99 133.022 157.948 154.031 157.188 177.901Z" fill="#E6E6E6"/>
<path d="M156.453 193.441C156.371 193.558 156.285 193.675 156.198 193.79H148.846C148.902 193.691 148.966 193.574 149.041 193.441C150.256 191.249 153.851 184.695 157.188 177.901C160.774 170.599 164.064 163.021 163.787 160.278C163.873 160.896 166.354 179.755 156.453 193.441Z" fill="#E6E6E6"/>
<path d="M45.1322 22.5223L49.7025 18.8669C46.152 18.4752 44.6932 20.4115 44.0961 21.9442C41.3223 20.7924 38.3027 22.3018 38.3027 22.3018L47.4471 25.6216C46.9858 24.3894 46.1828 23.3143 45.1322 22.5223Z" fill="#2F2E41"/>
<path d="M182.787 3.70659L187.358 0.0511923C183.807 -0.340524 182.348 1.59584 181.751 3.12849C178.978 1.9767 175.958 3.48617 175.958 3.48617L185.102 6.80591C184.641 5.57373 183.838 4.4986 182.787 3.70659Z" fill="#2F2E41"/>
<path d="M250.031 148.26C250.031 151.289 249.926 154.293 249.715 157.272C248.087 180.777 239.937 203.363 226.18 222.491C224.382 225 222.495 227.439 220.517 229.807C215.393 235.952 209.704 241.603 203.525 246.686L176.437 230.792L160.242 192.993C160.242 192.993 184.406 144.067 249.988 144.954C250.016 146.052 250.03 147.154 250.031 148.26Z" fill="#2DB12D"/>
<path d="M249.715 157.272C248.469 174.837 243.596 191.953 235.403 207.539C227.21 223.126 215.875 236.845 202.114 247.831L176.95 233.066L162.587 199.543C162.587 199.543 185.86 152.422 249.715 157.272Z" fill="#186B18"/>
<path d="M226.18 222.491C224.382 225 222.495 227.439 220.517 229.807C207.266 245.728 190.335 258.179 171.189 266.082C167.312 267.681 163.344 269.09 159.285 270.311C129.974 278.105 98.9217 276.134 70.8323 264.695C43.0522 252.296 20.603 230.398 7.51692 202.935C5.75827 199.238 4.17678 195.447 2.77246 191.562C27.2646 173.62 75.526 147.928 128.125 172.893C142.675 179.799 155.667 186.093 167.101 191.777C196.115 206.159 215.425 216.527 226.18 222.491Z" fill="#2DB12D"/>
<path d="M220.517 229.807C206.819 246.223 189.214 258.931 169.319 266.761C149.425 274.591 127.88 277.292 106.668 274.616C85.4566 271.94 65.2584 263.973 47.932 251.447C30.6057 238.921 16.7077 222.238 7.5166 202.935C27.9717 186.759 75.1505 157.69 126.925 182.261C140.24 188.58 152.127 194.341 162.587 199.543C193.078 214.655 211.86 224.926 220.517 229.807Z" fill="#186B18"/>
<path d="M184.414 259.708C180.131 262.083 175.715 264.211 171.189 266.082C155.786 272.429 139.286 275.685 122.627 275.665C102.914 275.657 83.4715 271.079 65.8261 262.291C48.1807 253.503 32.813 240.744 20.9297 225.016C51.3583 221.807 135.469 217.481 184.414 259.708Z" fill="#2DB12D"/>
<path d="M171.189 266.082C147.305 275.903 121.003 278.242 95.7608 272.791C70.5189 267.339 47.5264 254.354 29.8242 235.552C40.892 233.926 127.785 222.761 171.189 266.082Z" fill="#186B18"/>
<path d="M228.662 77.6092V77.6131C137.688 10.3505 33.4589 57.6935 32.6538 58.057V58.053C44.4677 46.2406 58.4958 36.8747 73.9348 30.4917C89.3737 24.1088 105.92 20.8342 122.626 20.8556C166.855 20.8556 205.819 43.3937 228.662 77.6092Z" fill="#E6E6E6"/>
<path d="M39.9504 150.73C55.3401 147.955 63.2263 120.25 57.5647 88.849C51.9032 57.4478 34.8378 34.2415 19.448 37.0162C4.05835 39.7909 -3.82788 67.496 1.83368 98.8972C7.49523 130.298 24.5607 153.505 39.9504 150.73Z" fill="#2DB12D"/>
<path d="M43.9057 187.403C42.9934 118.43 19.9161 53.7034 19.6832 53.0582L17.5786 53.8174C17.8104 54.4595 40.761 118.847 41.6686 187.433L43.9057 187.403Z" fill="#186B18"/>
<path d="M2.962 86.0704L2.27344 88.1996L29.9014 97.1344L30.59 95.0053L2.962 86.0704Z" fill="#186B18"/>
<path d="M54.9331 83.672L32.1694 101.7L33.5587 103.454L56.3224 85.4263L54.9331 83.672Z" fill="#186B18"/>
<path d="M113.95 140.786C130.871 140.786 144.589 112.797 144.589 78.27C144.589 43.7431 130.871 15.7535 113.95 15.7535C97.0282 15.7535 83.3105 43.7431 83.3105 78.27C83.3105 112.797 97.0282 140.786 113.95 140.786Z" fill="#2DB12D"/>
<path d="M111.121 180.599C123.392 106.974 111.244 33.6139 111.12 32.8821L108.733 33.2864C108.857 34.0147 120.935 106.989 108.732 180.202L111.121 180.599Z" fill="#186B18"/>
<path d="M86.9751 64.827L85.833 66.9622L113.539 81.7818L114.681 79.6466L86.9751 64.827Z" fill="#186B18"/>
<path d="M142.78 72.2506L115.077 87.0786L116.22 89.2135L143.923 74.3855L142.78 72.2506Z" fill="#186B18"/>
<path d="M247.038 120.677C235.796 114.365 224.051 108.995 211.923 104.622C144.864 80.3567 78.3674 89.7088 52.3394 124.436C72.5951 81.8926 144.872 68.5151 217.809 94.9066C226.298 97.9756 234.606 101.525 242.692 105.537C244.454 110.488 245.905 115.545 247.038 120.677Z" fill="#E6E6E6"/>
<path d="M156.47 52.2155L161.04 48.5601C157.489 48.1684 156.031 50.1048 155.434 51.6374C152.66 50.4856 149.64 51.9951 149.64 51.9951L158.785 55.3148C158.323 54.0826 157.52 53.0075 156.47 52.2155Z" fill="#2F2E41"/>
</g>
<defs>
<clipPath id="clip0_154_145">
<rect width="255" height="275.665" fill="white"/>
</clipPath>
</defs>
</svg>
